<svg width="24" height="25" viewBox="0 0 24 25" fill="none" xmlns="http://www.w3.org/2000/svg">
<g clip-path="url(#clip0_75_114)">
<path d="M15.375 7.83334C15.9963 7.83334 16.5 7.32966 16.5 6.70834C16.5 6.08702 15.9963 5.58334 15.375 5.58334C14.7537 5.58334 14.25 6.08702 14.25 6.70834C14.25 7.32966 14.7537 7.83334 15.375 7.83334Z" fill="#007A68"/>
<path d="M15.375 7.83334C15.9963 7.83334 16.5 7.32966 16.5 6.70834C16.5 6.08702 15.9963 5.58334 15.375 5.58334C14.7537 5.58334 14.25 6.08702 14.25 6.70834C14.25 7.32966 14.7537 7.83334 15.375 7.83334Z" fill="black" fill-opacity="0.2"/>
<path d="M11.25 13.0833L7.5 17.5833" stroke="#007A68" stroke-width="1.5" stroke-linecap="round" stroke-linejoin="round"/>
<path d="M11.25 13.0833L7.5 17.5833" stroke="black" stroke-opacity="0.2" stroke-width="1.5" stroke-linecap="round" stroke-linejoin="round"/>
<path d="M19.5 9.33334V11.5833C19.5 13.9703 18.5518 16.2595 16.864 17.9473C15.1761 19.6351 12.8869 20.5833 10.5 20.5833H0.75L9.75 9.33334V7.45834C9.75199 6.27407 10.185 5.13101 10.9682 4.24266C11.7513 3.35431 12.8311 2.78143 14.0058 2.631C15.1805 2.48058 16.3697 2.7629 17.3515 3.42525C18.3332 4.08759 19.0403 5.08466 19.3406 6.23022L21.75 7.83334L19.5 9.33334Z" stroke="#007A68" stroke-width="1.5" stroke-linecap="round" stroke-linejoin="round"/>
<path d="M19.5 9.33334V11.5833C19.5 13.9703 18.5518 16.2595 16.864 17.9473C15.1761 19.6351 12.8869 20.5833 10.5 20.5833H0.75L9.75 9.33334V7.45834C9.75199 6.27407 10.185 5.13101 10.9682 4.24266C11.7513 3.35431 12.8311 2.78143 14.0058 2.631C15.1805 2.48058 16.3697 2.7629 17.3515 3.42525C18.3332 4.08759 19.0403 5.08466 19.3406 6.23022L21.75 7.83334L19.5 9.33334Z" stroke="black" stroke-opacity="0.2" stroke-width="1.5" stroke-linecap="round" stroke-linejoin="round"/>
</g>
<defs>
<clipPath id="clip0_75_114">
<rect width="24" height="24" fill="white" transform="translate(0 0.333344)"/>
</clipPath>
</defs>
</svg>
