<svg width="427" height="292" viewBox="0 0 427 292" fill="none" xmlns="http://www.w3.org/2000/svg">
<g clip-path="url(#clip0_21_157)">
<path d="M126.081 47.2135C138.946 47.2135 149.375 36.7843 149.375 23.9192C149.375 11.0542 138.946 0.625 126.081 0.625C113.216 0.625 102.786 11.0542 102.786 23.9192C102.786 36.7843 113.216 47.2135 126.081 47.2135Z" fill="#FF6584"/>
<path d="M168.118 6.04681C156.828 4.52084 143.94 10.6228 141.014 21.6327C140.276 19.6752 138.936 18.0027 137.186 16.857C135.435 15.7112 133.366 15.1515 131.277 15.2587C129.188 15.3659 127.187 16.1345 125.563 17.4533C123.94 18.7722 122.777 20.5731 122.244 22.5959L123.537 23.5216C147.73 28.7533 172.773 28.6401 196.918 23.1898C189.065 14.9368 179.407 7.57276 168.118 6.04681Z" fill="#F0F0F0"/>
<path d="M119.702 37.1058C108.413 35.5798 95.5242 41.6818 92.5982 52.6917C91.8608 50.7341 90.5202 49.0617 88.77 47.9159C87.0198 46.7702 84.9508 46.2105 82.8617 46.3177C80.7726 46.4249 78.7717 47.1934 77.148 48.5123C75.5243 49.8312 74.3619 51.6321 73.8287 53.6548L75.1212 54.5805C99.3141 59.8123 124.358 59.699 148.502 54.2488C140.649 45.9958 130.992 38.6317 119.702 37.1058Z" fill="#F0F0F0"/>
<path d="M205.884 99.4006C202.063 93.0807 197.535 86.333 190.444 84.2694C182.232 81.8796 173.797 86.627 166.641 91.3117C145.242 105.322 124.635 120.506 104.913 136.792L104.934 137.038C120.289 135.979 135.643 134.92 150.997 133.861C162.09 133.096 173.565 132.226 183.368 126.978C187.089 124.986 190.715 122.326 194.93 122.141C200.168 121.911 204.734 125.568 208.323 129.39C229.552 151.995 235.695 186.565 259.511 206.425C244.493 169.389 226.561 133.602 205.884 99.4006Z" fill="#F2F2F2"/>
<path d="M336.373 291.136C334.026 288.172 333.066 287.478 330.751 284.486C311.896 260.1 294.174 234.891 277.585 208.858C266.317 191.177 255.608 173.156 245.457 154.797C240.625 146.068 235.925 137.271 231.357 128.406C227.813 121.532 224.348 114.616 220.962 107.66C219.993 105.673 219.053 103.677 218.116 101.677C215.91 96.9721 213.745 92.2447 211.42 87.6041C208.771 82.315 205.546 76.77 200.682 73.2165C198.468 71.5329 195.821 70.5143 193.05 70.2796C189.09 70.0238 185.436 71.659 182.001 73.4449C156.87 86.549 133.343 102.978 112.064 121.673C90.729 140.41 71.6595 161.578 55.2437 184.746C54.7414 185.463 53.5538 184.778 54.0607 184.056C56.0568 181.233 58.0924 178.441 60.1676 175.679C85.9706 141.362 117.609 111.851 153.637 88.4948C159.698 84.5667 165.873 80.8229 172.162 77.2633C175.332 75.4683 178.516 73.6961 181.754 72.0335C184.929 70.4029 188.299 68.9368 191.926 68.882C204.267 68.6901 210.657 82.6667 215.047 92.0711C216.426 95.0309 217.822 97.9815 219.235 100.923C224.575 112.09 230.119 123.156 235.87 134.12C239.419 140.889 243.046 147.618 246.75 154.308C258.278 175.14 270.531 195.551 283.509 215.54C300.701 242.018 317.756 265.408 337.342 290.168C337.881 290.853 336.917 291.831 336.373 291.136Z" fill="#E4E4E4"/>
<path d="M110.844 114.772C110.127 113.972 109.414 113.173 108.693 112.374C103.001 106.08 96.8949 99.8587 89.0797 96.2504C85.3534 94.4755 81.2857 93.5326 77.1585 93.487C72.8926 93.5007 68.7225 94.6198 64.7808 96.1864C62.9172 96.9309 61.0947 97.7759 59.2998 98.6757C57.2489 99.708 55.2345 100.809 53.2296 101.919C49.4659 104.001 45.751 106.176 42.0849 108.441C34.7905 112.949 27.7246 117.801 20.8871 122.998C17.3426 125.692 13.8713 128.476 10.4731 131.347C7.3124 134.014 4.21565 136.753 1.18285 139.564C0.534299 140.162 -0.434045 139.194 0.214485 138.596C1.0138 137.851 1.82224 137.111 2.63069 136.38C4.91444 134.316 7.23477 132.291 9.59167 130.306C13.8895 126.679 18.2987 123.193 22.8191 119.846C29.8486 114.639 37.12 109.785 44.6334 105.285C48.388 103.038 52.1942 100.885 56.0521 98.8264C57.217 98.2052 58.3955 97.5978 59.5875 97.0223C62.2924 95.6579 65.1029 94.5138 67.9917 93.6012C72.0837 92.2774 76.4133 91.8521 80.6847 92.3543C84.809 92.9542 88.7825 94.3288 92.3959 96.4056C100.069 100.695 106.021 107.327 111.812 113.799C112.397 114.456 111.433 115.429 110.844 114.772Z" fill="#E4E4E4"/>
<path d="M268.068 179.994L286.455 173.269L295.584 169.93C298.558 168.843 301.524 167.605 304.597 166.826C307.315 166.137 310.076 166.025 312.755 166.93C315.119 167.805 317.283 169.146 319.118 170.874C320.993 172.601 322.738 174.464 324.337 176.448C326.325 178.836 328.283 181.25 330.25 183.656C338.369 193.584 346.434 203.556 354.446 213.571C362.458 223.585 370.417 233.642 378.322 243.742C386.246 253.866 394.116 264.033 401.931 274.242C402.888 275.492 403.845 276.744 404.801 277.996C405.329 278.687 406.519 278.005 405.984 277.304C398.111 266.992 390.183 256.723 382.2 246.496C374.198 236.244 366.141 226.036 358.028 215.871C349.915 205.707 341.747 195.586 333.525 185.51C331.477 182.999 329.425 180.492 327.37 177.987C325.636 175.874 323.922 173.739 322.02 171.772C318.53 168.162 314.169 164.972 308.95 164.885C305.881 164.835 302.91 165.808 300.059 166.84C296.985 167.952 293.918 169.085 290.848 170.208L272.333 176.98L267.704 178.673C266.882 178.974 267.237 180.298 268.068 179.994V179.994Z" fill="#E4E4E4"/>
<path d="M86.6601 104.17C77.3161 99.3678 65.3498 100.308 56.7633 106.308C73.1414 109.134 89.3402 112.915 105.277 117.631C98.6591 113.753 93.4823 107.676 86.6601 104.17Z" fill="#F2F2F2"/>
<path d="M56.6713 106.292L54.8725 107.754C55.481 107.242 56.1135 106.762 56.7633 106.308C56.7326 106.303 56.702 106.297 56.6713 106.292Z" fill="#F2F2F2"/>
<path d="M318.426 180.062C316.616 177.858 314.659 175.551 311.952 174.656L309.424 174.756C328.665 208.755 354.651 238.464 385.788 262.058C363.334 234.726 340.88 207.394 318.426 180.062Z" fill="#F2F2F2"/>
<path d="M130.196 266.119C131.227 257.832 136.362 249.667 144.265 246.97C141.149 255.5 141.149 264.857 144.267 273.386C145.482 276.671 147.175 280.198 146.032 283.509C145.322 285.569 143.583 287.145 141.639 288.131C139.696 289.116 137.539 289.586 135.408 290.046L134.989 290.393C131.608 282.757 129.165 274.406 130.196 266.119Z" fill="#F0F0F0"/>
<path d="M144.344 247.127C139.741 252.284 136.881 258.76 136.169 265.635C135.989 267.112 136.043 268.609 136.33 270.069C136.655 271.483 137.352 272.784 138.35 273.837C139.26 274.837 140.308 275.755 140.959 276.959C141.283 277.581 141.473 278.264 141.515 278.963C141.556 279.663 141.45 280.364 141.202 281.019C140.627 282.669 139.493 284.014 138.339 285.29C137.057 286.708 135.703 288.159 135.159 290.038C135.093 290.266 134.743 290.15 134.809 289.923C135.757 286.654 138.93 284.797 140.444 281.853C141.15 280.479 141.446 278.884 140.784 277.433C140.205 276.165 139.126 275.218 138.196 274.213C137.207 273.2 136.482 271.96 136.083 270.603C135.723 269.162 135.611 267.67 135.752 266.191C136.016 262.857 136.802 259.585 138.082 256.495C139.524 252.961 141.559 249.699 144.1 246.851C144.258 246.675 144.5 246.952 144.344 247.127L144.344 247.127Z" fill="white"/>
<path d="M136.268 263.408C135.13 263.132 134.128 262.46 133.44 261.513C132.752 260.567 132.423 259.406 132.512 258.239C132.531 258.003 132.898 258.021 132.88 258.258C132.795 259.344 133.102 260.425 133.744 261.305C134.387 262.186 135.322 262.807 136.383 263.058C136.613 263.113 136.497 263.462 136.268 263.408Z" fill="white"/>
<path d="M137.821 273.39C139.875 272.164 141.392 270.208 142.068 267.913C142.135 267.686 142.484 267.802 142.417 268.029C141.709 270.416 140.127 272.447 137.987 273.719C137.783 273.84 137.618 273.511 137.821 273.39V273.39Z" fill="white"/>
<path d="M139.865 253.31C140.283 253.508 140.743 253.6 141.205 253.576C141.667 253.553 142.116 253.415 142.512 253.175C142.714 253.052 142.878 253.381 142.677 253.504C142.239 253.767 141.743 253.918 141.233 253.945C140.722 253.973 140.213 253.874 139.75 253.659C139.704 253.642 139.667 253.609 139.645 253.566C139.623 253.523 139.619 253.473 139.633 253.427C139.648 253.38 139.681 253.342 139.725 253.32C139.768 253.298 139.819 253.295 139.865 253.31Z" fill="white"/>
<path d="M168.356 261.772C168.231 261.852 168.107 261.933 167.983 262.017C166.318 263.112 164.746 264.34 163.28 265.689C163.165 265.791 163.05 265.897 162.938 266.002C159.442 269.291 156.587 273.199 154.517 277.53C153.695 279.254 153.006 281.038 152.455 282.866C151.694 285.392 151.069 288.19 149.563 290.256C149.408 290.473 149.24 290.681 149.059 290.877H135.445C135.414 290.862 135.383 290.849 135.352 290.834L134.808 290.859C134.83 290.762 134.855 290.663 134.876 290.567C134.889 290.511 134.904 290.455 134.917 290.399C134.926 290.362 134.935 290.324 134.942 290.29C134.945 290.278 134.948 290.265 134.951 290.256C134.957 290.222 134.966 290.191 134.973 290.16C135.109 289.604 135.25 289.048 135.395 288.492C135.395 288.489 135.395 288.489 135.398 288.485C136.462 284.238 138.026 280.132 140.058 276.253C140.12 276.138 140.182 276.02 140.25 275.905C141.191 274.188 142.27 272.551 143.478 271.01C144.141 270.168 144.847 269.36 145.593 268.59C147.523 266.603 149.754 264.932 152.203 263.639C157.086 261.06 162.739 260.073 167.958 261.648C168.091 261.688 168.222 261.728 168.356 261.772Z" fill="#F0F0F0"/>
<path d="M168.325 261.944C161.545 263.291 155.362 266.739 150.654 271.8C149.621 272.871 148.764 274.099 148.113 275.437C147.521 276.762 147.295 278.22 147.458 279.662C147.583 281.009 147.866 282.372 147.661 283.726C147.546 284.417 147.286 285.077 146.898 285.66C146.51 286.244 146.003 286.74 145.411 287.114C143.958 288.085 142.243 288.476 140.553 288.8C138.677 289.16 136.722 289.504 135.155 290.676C134.966 290.819 134.756 290.516 134.946 290.374C137.671 288.334 141.323 288.762 144.304 287.323C145.695 286.651 146.892 285.556 147.236 283.999C147.538 282.638 147.246 281.232 147.108 279.869C146.929 278.465 147.096 277.039 147.595 275.715C148.175 274.348 148.984 273.089 149.987 271.993C152.205 269.49 154.803 267.351 157.685 265.655C160.964 263.7 164.553 262.321 168.297 261.577C168.528 261.532 168.555 261.899 168.325 261.944H168.325Z" fill="white"/>
<path d="M152.074 270.081C151.332 269.176 150.937 268.037 150.957 266.867C150.978 265.696 151.414 264.572 152.187 263.693C152.344 263.516 152.627 263.752 152.47 263.929C151.748 264.746 151.342 265.794 151.325 266.883C151.308 267.973 151.681 269.033 152.377 269.872C152.528 270.054 152.224 270.263 152.074 270.081V270.081Z" fill="white"/>
<path d="M147.305 278.987C149.683 279.245 152.071 278.596 153.993 277.171C154.183 277.03 154.393 277.332 154.202 277.474C152.2 278.953 149.713 279.623 147.239 279.349C147.003 279.323 147.07 278.961 147.305 278.987H147.305Z" fill="white"/>
<path d="M161.027 264.184C161.241 264.594 161.553 264.945 161.936 265.204C162.319 265.464 162.76 265.624 163.221 265.671C163.457 265.694 163.389 266.056 163.155 266.033C162.647 265.979 162.159 265.801 161.736 265.516C161.312 265.23 160.965 264.845 160.724 264.394C160.698 264.353 160.688 264.304 160.697 264.257C160.705 264.209 160.732 264.167 160.77 264.138C160.811 264.11 160.86 264.1 160.908 264.108C160.956 264.117 160.999 264.144 161.027 264.184Z" fill="white"/>
<path d="M229.184 221.091C222.506 206.32 222.752 187.597 233.116 175.132C236.583 192.416 246.052 207.917 259.848 218.891C265.184 223.104 271.557 227.235 273.015 233.875C273.922 238.007 272.636 242.377 270.414 245.977C268.191 249.576 265.093 252.537 262.03 255.454L261.686 256.453C248.358 247.225 235.862 235.862 229.184 221.091Z" fill="#F0F0F0"/>
<path d="M233.404 175.312C230.998 188.512 232.812 202.135 238.589 214.246C239.786 216.875 241.39 219.299 243.342 221.428C245.311 223.441 247.783 224.891 250.501 225.625C253.021 226.361 255.685 226.822 257.983 228.158C259.149 228.859 260.154 229.799 260.931 230.916C261.708 232.033 262.241 233.301 262.494 234.638C263.21 237.953 262.693 241.328 262.072 244.611C261.383 248.256 260.609 252.03 261.608 255.694C261.729 256.138 261.033 256.3 260.912 255.857C259.175 249.482 262.553 243.195 262.081 236.786C261.86 233.795 260.737 230.853 258.173 229.12C255.931 227.605 253.185 227.128 250.626 226.404C247.964 225.727 245.508 224.407 243.473 222.562C241.419 220.538 239.724 218.18 238.461 215.588C235.524 209.798 233.516 203.582 232.511 197.168C231.322 189.854 231.394 182.391 232.722 175.101C232.804 174.65 233.486 174.864 233.404 175.312H233.404Z" fill="white"/>
<path d="M236.499 210.456C234.336 211.149 231.996 211.051 229.898 210.178C227.801 209.306 226.081 207.717 225.047 205.694C224.84 205.284 225.467 204.941 225.675 205.352C226.634 207.238 228.236 208.718 230.191 209.526C232.146 210.335 234.326 210.417 236.336 209.76C236.774 209.617 236.934 210.314 236.499 210.456Z" fill="white"/>
<path d="M249.174 225.421C251.335 221.31 251.869 216.536 250.667 212.05C250.547 211.606 251.243 211.444 251.363 211.888C252.604 216.558 252.039 221.525 249.78 225.798C249.565 226.205 248.959 225.825 249.174 225.421Z" fill="white"/>
<path d="M232.241 190.086C233.134 189.993 233.989 189.678 234.731 189.172C235.472 188.666 236.077 187.983 236.489 187.186C236.7 186.776 237.305 187.156 237.096 187.563C236.636 188.442 235.968 189.195 235.15 189.756C234.332 190.317 233.389 190.669 232.403 190.782C232.311 190.801 232.215 190.783 232.136 190.734C232.056 190.684 231.998 190.606 231.974 190.515C231.953 190.423 231.969 190.326 232.019 190.246C232.069 190.166 232.149 190.108 232.241 190.086Z" fill="white"/>
<path d="M288.001 175.277C287.877 175.536 287.753 175.796 287.632 176.061C285.982 179.558 284.619 183.183 283.556 186.901C283.469 187.188 283.386 187.479 283.308 187.767C280.843 196.752 280.067 206.116 281.021 215.384C281.404 219.072 282.067 222.725 283.004 226.312C284.298 231.266 286.096 236.534 285.691 241.48C285.654 241.997 285.586 242.511 285.485 243.019L262.931 256.795C262.864 256.8 262.8 256.811 262.733 256.817L261.857 257.408C261.796 257.227 261.736 257.037 261.675 256.855C261.639 256.75 261.608 256.642 261.572 256.537C261.55 256.465 261.528 256.394 261.503 256.331C261.496 256.308 261.489 256.284 261.484 256.265C261.46 256.202 261.444 256.141 261.423 256.084C261.087 255.024 260.757 253.961 260.435 252.893C260.432 252.888 260.432 252.888 260.434 252.88C257.997 244.737 256.219 236.32 255.775 227.9C255.762 227.647 255.745 227.389 255.742 227.129C255.563 223.333 255.695 219.528 256.135 215.754C256.383 213.687 256.736 211.635 257.191 209.604C258.378 204.36 260.383 199.335 263.131 194.713C268.612 185.501 276.978 178.145 287.217 175.473C287.479 175.405 287.736 175.34 288.001 175.277Z" fill="#F0F0F0"/>
<path d="M288.125 175.594C278.256 184.685 271.503 196.654 268.824 209.801C268.197 212.621 268.018 215.523 268.295 218.398C268.655 221.191 269.756 223.836 271.484 226.059C273.053 228.165 274.902 230.136 275.933 232.586C276.442 233.848 276.678 235.204 276.626 236.563C276.575 237.923 276.236 239.256 275.633 240.476C274.209 243.554 271.764 245.937 269.292 248.185C266.547 250.68 263.657 253.228 262.249 256.755C262.078 257.182 261.425 256.892 261.595 256.466C264.046 250.33 270.528 247.344 274.01 241.942C275.635 239.422 276.51 236.397 275.505 233.469C274.627 230.909 272.722 228.875 271.115 226.757C269.397 224.613 268.231 222.081 267.717 219.382C267.295 216.53 267.362 213.626 267.914 210.796C269.055 204.405 271.194 198.233 274.253 192.506C277.707 185.951 282.258 180.035 287.707 175.015C288.044 174.704 288.46 175.285 288.125 175.594L288.125 175.594Z" fill="white"/>
<path d="M269.437 205.517C267.292 204.768 265.484 203.281 264.334 201.322C263.184 199.362 262.769 197.058 263.161 194.82C263.242 194.368 263.949 194.472 263.868 194.925C263.499 197.008 263.886 199.155 264.96 200.977C266.035 202.8 267.725 204.178 269.726 204.864C270.161 205.013 269.87 205.666 269.437 205.517Z" fill="white"/>
<path d="M270.547 225.097C274.748 223.117 278.048 219.626 279.789 215.32C279.962 214.894 280.615 215.183 280.443 215.61C278.622 220.086 275.181 223.712 270.805 225.763C270.388 225.958 270.132 225.291 270.547 225.097V225.097Z" fill="white"/>
<path d="M278.301 186.69C279.07 187.152 279.943 187.417 280.84 187.459C281.737 187.501 282.63 187.32 283.44 186.932C283.854 186.731 284.109 187.399 283.697 187.598C282.801 188.023 281.814 188.222 280.823 188.177C279.832 188.133 278.867 187.846 278.012 187.343C277.927 187.302 277.861 187.231 277.828 187.143C277.794 187.056 277.795 186.959 277.83 186.872C277.868 186.785 277.94 186.718 278.028 186.684C278.116 186.65 278.214 186.652 278.301 186.69Z" fill="white"/>
<path d="M331.378 238.195L356.748 218.934L369.114 231.3L327.785 259.582L331.378 238.195Z" fill="#3F3D56"/>
<path d="M307.717 291.23H220.934L223.977 281.368C242.842 274.539 232.246 259.86 250.19 250.888C294.082 228.942 311.074 163.454 304.647 137.566L333.409 136.35C333.409 136.35 373.131 249.154 307.717 291.23Z" fill="#3F3D56"/>
<path d="M381.805 244.871C379.213 247.151 375.896 248.437 372.445 248.502C368.994 248.566 365.632 247.405 362.956 245.224L362.9 245.177L362.898 245.105C362.866 243.897 362.678 242.698 362.337 241.538C362.32 242.373 362.198 243.202 361.975 244.007L361.902 244.278L361.707 244.076C361.539 243.903 361.376 243.726 361.223 243.552C360.323 242.531 359.569 241.389 358.982 240.16C356.176 234.388 352.11 229.32 347.084 225.329C346.187 224.6 345.352 223.796 344.588 222.928C341.361 219.256 339.546 214.556 339.469 209.669C339.392 204.781 341.056 200.026 344.165 196.254C347.274 192.482 351.624 189.94 356.437 189.083C361.249 188.226 366.209 189.11 370.429 191.577L370.558 191.652L370.491 191.785C370.002 192.799 369.357 193.73 368.579 194.544C369.649 193.966 370.639 193.25 371.524 192.416L371.618 192.328L371.723 192.401C373.11 193.36 374.374 194.485 375.487 195.75L375.607 195.888C376.456 196.86 377.501 197.642 378.673 198.182C379.845 198.723 381.118 199.011 382.409 199.027C384.515 199.062 386.588 199.554 388.486 200.467C390.384 201.38 392.062 202.694 393.404 204.317C394.746 205.941 395.72 207.836 396.259 209.872C396.799 211.907 396.891 214.036 396.529 216.111L396.513 216.207L396.419 216.236C394.783 216.798 393.047 217.014 391.323 216.872C392.763 217.499 394.297 217.883 395.862 218.009L396.064 218.025L396 218.217C395.185 220.666 393.733 222.855 391.794 224.559L391.739 224.607C391.719 224.624 391.7 224.641 391.68 224.659C390.236 225.903 389.054 227.422 388.204 229.129C387.355 230.836 386.855 232.695 386.733 234.598C386.637 236.552 386.152 238.468 385.306 240.232C384.459 241.996 383.269 243.573 381.805 244.871Z" fill="#00C7A9"/>
<path opacity="0.15" d="M384.46 240.183C384.434 240.708 384.379 241.232 384.296 241.751C385.717 239.569 386.535 237.049 386.666 234.448C386.685 234.049 386.727 233.653 386.783 233.258C385.402 235.316 384.6 237.708 384.46 240.183Z" fill="black"/>
<path opacity="0.15" d="M389.049 222.457C390.208 222.959 391.427 223.304 392.677 223.483C393.158 222.975 393.602 222.433 394.006 221.861C392.411 222.395 390.725 222.597 389.049 222.457Z" fill="black"/>
<path opacity="0.15" d="M394.395 217.668C394.524 218.928 394.489 220.2 394.291 221.452C394.983 220.4 395.535 219.262 395.933 218.067L395.997 217.874L395.795 217.858C395.325 217.818 394.858 217.755 394.395 217.668Z" fill="black"/>
<path opacity="0.15" d="M393.046 203.826C391.703 202.303 390.058 201.076 388.215 200.224C386.372 199.372 384.372 198.913 382.342 198.877C381.051 198.861 379.778 198.573 378.606 198.032C377.434 197.491 376.389 196.709 375.539 195.738L375.419 195.6C374.306 194.334 373.042 193.209 371.656 192.25L371.55 192.177L371.457 192.265C370.572 193.1 369.581 193.815 368.511 194.393C369.29 193.58 369.935 192.649 370.424 191.635L370.49 191.502L370.362 191.426C367.564 189.789 364.419 188.836 361.183 188.646C357.947 188.455 354.712 189.033 351.742 190.331C348.771 191.629 346.15 193.61 344.091 196.114C342.033 198.618 340.595 201.573 339.896 204.739C341.243 202.374 343.045 200.299 345.199 198.636C347.353 196.973 349.815 195.753 352.444 195.048C355.072 194.344 357.815 194.168 360.512 194.531C363.209 194.893 365.807 195.788 368.156 197.162L368.284 197.237L368.218 197.37C367.729 198.385 367.083 199.316 366.305 200.129C367.375 199.551 368.366 198.836 369.251 198.001L369.344 197.913L369.45 197.986C370.836 198.945 372.1 200.07 373.213 201.336L373.333 201.473C374.183 202.445 375.228 203.227 376.4 203.768C377.572 204.309 378.845 204.596 380.135 204.612C383.511 204.669 386.761 205.895 389.334 208.081C391.906 210.267 393.64 213.277 394.241 216.599C394.954 216.471 395.659 216.3 396.352 216.085L396.445 216.057L396.462 215.961C396.841 213.811 396.73 211.604 396.139 209.504C395.547 207.403 394.49 205.462 393.046 203.826Z" fill="black"/>
<path d="M423.75 143.776C423.749 154.89 419.806 165.645 412.623 174.126C405.44 182.608 395.482 188.267 384.519 190.098L384.287 190.136L384.107 189.986C381.119 187.494 377.819 185.399 374.292 183.756C376.274 185.572 378.02 187.631 379.49 189.882L379.99 190.634L379.089 190.677C378.311 190.715 377.538 190.734 376.792 190.734C372.408 190.738 368.044 190.133 363.825 188.936C344.664 183.484 324.087 182.552 302.667 186.165C298.994 186.782 295.276 187.093 291.552 187.092C255.029 187.092 225.315 157.373 225.315 120.843C225.296 106.915 229.673 93.3365 237.824 82.0424C245.974 70.7483 257.482 62.3153 270.706 57.9453L271.162 57.7945L271.342 58.239C272.755 61.5775 273.633 65.1178 273.944 68.7297C274.822 64.9126 275.199 60.9972 275.063 57.0827L275.049 56.6694L275.45 56.5686C280.717 55.2561 286.124 54.5929 291.552 54.5937L292.139 54.5961C296.296 54.6085 300.408 53.7447 304.208 52.0611C308.009 50.3775 311.411 47.9119 314.195 44.8251C318.759 39.8088 324.356 35.8407 330.6 33.1939C336.844 30.5471 343.587 29.2844 350.366 29.4926C357.145 29.7008 363.798 31.375 369.868 34.4001C375.938 37.4251 381.28 41.7292 385.528 47.0162L385.726 47.261L385.595 47.5479C382.851 53.5949 379.862 58.0003 376.295 61.2218C380.873 59.0741 385.064 56.1825 388.697 52.6645L389.166 52.2097L389.495 52.7744C393.681 59.9541 395.886 68.117 395.883 76.4281L395.882 76.665C395.881 76.7486 395.881 76.8329 395.881 76.9165C395.881 89.6302 400.798 101.68 409.392 110.014C413.913 114.402 417.511 119.649 419.977 125.447C422.442 131.244 423.725 137.476 423.75 143.776Z" fill="#00C7A9"/>
<g opacity="0.15">
<path d="M366.341 32.8041C364.722 35.491 362.73 37.9347 360.425 40.0621C363.726 38.5123 366.829 36.5726 369.669 34.2844C368.58 33.7478 367.471 33.2544 366.341 32.8041Z" fill="black"/>
<path d="M393.522 88.8544C396.076 91.3327 398.342 94.0922 400.275 97.0801C397.365 90.757 395.866 83.8768 395.881 76.9166C395.881 76.8329 395.881 76.7487 395.882 76.6651L395.883 76.4282C395.886 68.117 393.681 59.9542 389.495 52.7744L389.166 52.2097L388.697 52.6645C386.108 55.1669 383.233 57.3558 380.133 59.1861C380.932 70.6185 385.705 81.2739 393.522 88.8544Z" fill="black"/>
<path d="M380.013 55.2684L380.012 55.5053C380.012 55.5889 380.012 55.6732 380.012 55.7568C380.012 56.2178 380.02 56.6775 380.033 57.1366C382.244 54.1615 384.11 50.9447 385.595 47.548L385.726 47.261L385.528 47.0162C383.051 43.9334 380.197 41.1732 377.033 38.8002C379.003 44.0673 380.012 49.645 380.013 55.2684Z" fill="black"/>
<path d="M409.392 110.014C407.133 107.817 405.126 105.374 403.407 102.733C406.485 109.289 408.002 116.47 407.841 123.711C407.679 130.952 405.843 138.058 402.476 144.471C399.11 150.884 394.303 156.43 388.435 160.675C382.566 164.92 375.794 167.748 368.649 168.938L368.417 168.976L368.237 168.827C365.249 166.334 361.949 164.24 358.422 162.596C360.404 164.413 362.151 166.471 363.62 168.723L364.12 169.474L363.219 169.518C362.441 169.555 361.669 169.574 360.923 169.574C356.538 169.578 352.174 168.973 347.955 167.777C328.794 162.325 308.217 161.393 286.797 165.005C283.124 165.623 279.406 165.933 275.682 165.933C259.448 165.945 243.779 159.97 231.676 149.151C237.045 160.492 245.521 170.077 256.119 176.793C266.718 183.509 279.004 187.08 291.552 187.093C295.276 187.093 298.994 186.783 302.667 186.165C324.087 182.552 344.664 183.484 363.825 188.936C368.044 190.133 372.408 190.738 376.792 190.734C377.538 190.734 378.311 190.715 379.089 190.677L379.99 190.634L379.49 189.883C378.02 187.631 376.274 185.572 374.292 183.756C377.819 185.399 381.119 187.494 384.107 189.986L384.287 190.136L384.519 190.098C393.098 188.671 401.112 184.888 407.667 179.171C414.221 173.454 419.058 166.028 421.638 157.722C424.218 149.416 424.439 140.557 422.276 132.133C420.114 123.708 415.653 116.051 409.392 110.014V110.014Z" fill="black"/>
</g>
<path d="M188.397 131.892C185.869 129.169 184.558 125.082 185.902 121.618C187.915 125.122 191.103 127.8 194.901 129.18C196.367 129.707 198.053 130.14 198.854 131.477C199.317 132.341 199.43 133.351 199.17 134.296C198.909 135.231 198.529 136.129 198.039 136.967L198.037 137.209C194.468 136.175 190.924 134.616 188.397 131.892Z" fill="#00C7A9"/>
<path d="M313.945 210.889C311.417 208.165 310.106 204.078 311.45 200.614C313.463 204.118 316.651 206.797 320.448 208.176C321.915 208.703 323.601 209.136 324.402 210.473C324.864 211.338 324.978 212.347 324.718 213.293C324.457 214.228 324.076 215.125 323.587 215.963L323.585 216.205C320.016 215.171 316.472 213.612 313.945 210.889Z" fill="#00C7A9"/>
<path d="M373.145 261.874C371.379 258.605 371.133 254.32 373.301 251.303C374.373 255.198 376.789 258.589 380.121 260.875C381.409 261.752 382.933 262.594 383.373 264.089C383.605 265.041 383.462 266.047 382.974 266.898C382.487 267.737 381.895 268.511 381.211 269.2L381.148 269.434C377.952 267.54 374.911 265.144 373.145 261.874Z" fill="#00C7A9"/>
<path d="M415.817 198.748C414.051 195.478 413.805 191.194 415.973 188.176C417.045 192.072 419.461 195.463 422.793 197.749C424.081 198.626 425.605 199.467 426.046 200.962C426.277 201.915 426.134 202.92 425.647 203.771C425.159 204.611 424.567 205.384 423.883 206.074L423.82 206.307C420.624 204.413 417.583 202.017 415.817 198.748Z" fill="#00C7A9"/>
<path d="M136.861 223.081C135.096 219.812 134.849 215.527 137.017 212.51C138.09 216.406 140.505 219.797 143.837 222.083C145.125 222.96 146.649 223.801 147.09 225.296C147.322 226.249 147.179 227.254 146.691 228.105C146.204 228.944 145.611 229.718 144.927 230.407L144.865 230.641C141.668 228.747 138.627 226.351 136.861 223.081Z" fill="#E6E6E6"/>
<path d="M296.306 254.39C297.839 242.059 305.482 229.909 317.241 225.896C312.604 238.588 312.605 252.512 317.244 265.203C319.051 270.091 321.57 275.339 319.87 280.266C318.813 283.331 316.226 285.676 313.334 287.143C310.441 288.609 307.232 289.308 304.062 289.993L303.438 290.509C298.407 279.147 294.773 266.721 296.306 254.39Z" fill="#E6E6E6"/>
<path d="M317.358 226.129C310.51 233.803 306.253 243.439 305.193 253.67C304.926 255.868 305.007 258.095 305.433 260.268C305.916 262.371 306.954 264.307 308.439 265.873C309.794 267.362 311.352 268.728 312.321 270.52C312.804 271.444 313.086 272.461 313.148 273.502C313.21 274.543 313.052 275.586 312.683 276.561C311.827 279.016 310.14 281.017 308.423 282.916C306.515 285.025 304.501 287.186 303.69 289.981C303.592 290.32 303.072 290.148 303.17 289.81C304.581 284.945 309.303 282.182 311.555 277.801C312.605 275.757 313.046 273.383 312.061 271.225C311.2 269.338 309.594 267.928 308.209 266.433C306.739 264.926 305.66 263.082 305.066 261.061C304.531 258.917 304.364 256.697 304.574 254.497C304.966 249.536 306.136 244.667 308.041 240.07C310.186 234.81 313.214 229.957 316.996 225.719C317.23 225.456 317.591 225.869 317.358 226.129Z" fill="white"/>
<path d="M305.341 250.355C303.648 249.944 302.157 248.945 301.134 247.537C300.11 246.128 299.62 244.401 299.752 242.665C299.78 242.313 300.327 242.34 300.299 242.692C300.173 244.309 300.63 245.917 301.586 247.227C302.542 248.537 303.934 249.462 305.512 249.835C305.855 249.917 305.682 250.436 305.341 250.355Z" fill="white"/>
<path d="M307.653 265.209C310.709 263.384 312.965 260.474 313.972 257.06C314.071 256.721 314.591 256.893 314.492 257.231C313.438 260.783 311.084 263.806 307.899 265.698C307.595 265.879 307.35 265.388 307.653 265.209Z" fill="white"/>
<path d="M310.694 235.329C311.315 235.625 312.001 235.761 312.688 235.726C313.375 235.691 314.043 235.486 314.632 235.129C314.933 234.945 315.177 235.436 314.878 235.618C314.226 236.01 313.488 236.235 312.729 236.275C311.969 236.316 311.212 236.169 310.522 235.849C310.454 235.824 310.399 235.775 310.366 235.711C310.334 235.646 310.327 235.572 310.348 235.503C310.371 235.435 310.42 235.378 310.485 235.345C310.55 235.312 310.625 235.307 310.694 235.329Z" fill="white"/>
<path d="M353.087 247.921C352.903 248.041 352.718 248.161 352.533 248.286C350.056 249.915 347.716 251.742 345.535 253.749C345.364 253.902 345.193 254.059 345.026 254.216C339.824 259.109 335.575 264.925 332.496 271.369C331.273 273.934 330.247 276.589 329.427 279.31C328.294 283.067 327.365 287.232 325.124 290.306C324.893 290.629 324.643 290.938 324.375 291.23H304.116C304.07 291.207 304.024 291.188 303.978 291.165L303.169 291.202C303.201 291.059 303.238 290.911 303.27 290.768C303.289 290.685 303.312 290.601 303.331 290.518C303.344 290.463 303.358 290.407 303.367 290.356C303.372 290.338 303.377 290.319 303.381 290.306C303.391 290.255 303.405 290.208 303.414 290.162C303.617 289.335 303.827 288.508 304.042 287.68C304.042 287.676 304.042 287.676 304.047 287.671C305.706 281.371 307.906 275.154 310.98 269.469C311.073 269.298 311.165 269.122 311.267 268.951C312.666 266.396 314.272 263.96 316.069 261.667C317.057 260.414 318.107 259.213 319.217 258.066C322.089 255.11 325.408 252.624 329.052 250.699C336.319 246.862 344.731 245.393 352.496 247.736C352.694 247.796 352.889 247.856 353.087 247.921Z" fill="#E6E6E6"/>
<path d="M353.042 248.178C342.954 250.182 333.754 255.313 326.748 262.843C325.211 264.437 323.935 266.264 322.967 268.256C322.086 270.226 321.75 272.397 321.992 274.541C322.177 276.546 322.599 278.574 322.294 280.589C322.123 281.618 321.736 282.599 321.159 283.467C320.582 284.336 319.827 285.073 318.946 285.63C316.784 287.075 314.233 287.657 311.718 288.139C308.925 288.675 306.016 289.187 303.686 290.931C303.403 291.143 303.092 290.692 303.374 290.481C307.429 287.446 312.862 288.083 317.298 285.941C319.368 284.941 321.149 283.312 321.662 280.995C322.11 278.97 321.677 276.878 321.472 274.85C321.205 272.761 321.453 270.639 322.196 268.668C323.059 266.634 324.263 264.761 325.755 263.13C329.055 259.406 332.921 256.223 337.21 253.699C342.088 250.791 347.429 248.739 353 247.632C353.345 247.564 353.384 248.11 353.042 248.178Z" fill="white"/>
<path d="M328.861 260.286C327.757 258.939 327.168 257.243 327.199 255.502C327.23 253.761 327.878 252.087 329.029 250.78C329.263 250.517 329.684 250.868 329.45 251.132C328.376 252.347 327.772 253.906 327.746 255.527C327.721 257.149 328.276 258.726 329.311 259.974C329.536 260.245 329.084 260.556 328.861 260.286Z" fill="white"/>
<path d="M321.764 273.537C325.303 273.92 328.857 272.955 331.716 270.835C331.999 270.625 332.31 271.075 332.028 271.285C329.048 273.486 325.348 274.483 321.666 274.076C321.315 274.037 321.415 273.499 321.764 273.537V273.537Z" fill="white"/>
<path d="M342.182 251.511C342.5 252.121 342.965 252.643 343.535 253.029C344.105 253.415 344.762 253.653 345.447 253.722C345.798 253.757 345.698 254.296 345.349 254.261C344.593 254.181 343.868 253.917 343.237 253.492C342.607 253.067 342.09 252.494 341.732 251.823C341.693 251.762 341.678 251.689 341.691 251.619C341.704 251.548 341.743 251.485 341.801 251.442C341.861 251.401 341.934 251.385 342.006 251.398C342.077 251.411 342.14 251.452 342.182 251.511Z" fill="white"/>
<path d="M193.476 256.08L176.661 243.314L168.466 251.51L195.858 270.254L193.476 256.08Z" fill="#3F3D56"/>
<path d="M209.157 291.23H266.674L264.657 284.694C252.154 280.168 259.177 270.439 247.284 264.493C218.195 249.948 206.933 206.545 211.192 189.387L192.129 188.581C192.129 188.581 165.803 263.344 209.157 291.23Z" fill="#3F3D56"/>
<path d="M156.788 253.696C156.708 252.435 156.376 251.203 155.813 250.072C155.25 248.941 154.467 247.933 153.509 247.109C153.497 247.097 153.483 247.086 153.47 247.075L153.434 247.043C152.149 245.913 151.187 244.463 150.646 242.84L150.604 242.712L150.738 242.701C151.775 242.618 152.792 242.364 153.746 241.948C152.603 242.043 151.453 241.899 150.369 241.526L150.307 241.508L150.296 241.444C150.056 240.069 150.117 238.658 150.475 237.308C150.832 235.959 151.478 234.703 152.367 233.627C153.257 232.551 154.368 231.681 155.626 231.075C156.884 230.47 158.258 230.145 159.654 230.121C160.51 230.111 161.353 229.92 162.13 229.561C162.907 229.203 163.599 228.685 164.163 228.041L164.242 227.949C164.98 227.11 165.817 226.365 166.736 225.729L166.806 225.681L166.868 225.739C167.455 226.292 168.111 226.767 168.82 227.15C168.305 226.611 167.877 225.994 167.553 225.321L167.509 225.233L167.594 225.183C170.391 223.548 173.678 222.963 176.868 223.53C180.057 224.098 182.94 225.783 185.001 228.283C187.061 230.783 188.165 233.935 188.113 237.174C188.062 240.413 186.859 243.528 184.72 245.962C184.214 246.537 183.661 247.07 183.066 247.553C179.735 250.198 177.04 253.557 175.18 257.382C174.792 258.197 174.292 258.954 173.696 259.631C173.594 259.746 173.486 259.863 173.375 259.978L173.245 260.112L173.197 259.932C173.049 259.399 172.968 258.849 172.957 258.296C172.731 259.064 172.607 259.859 172.586 260.66L172.584 260.708L172.547 260.739C171.16 261.871 169.486 262.595 167.711 262.831C165.937 263.067 164.131 262.805 162.497 262.074C160.863 261.344 159.463 260.174 158.455 258.694C157.447 257.215 156.87 255.485 156.788 253.696Z" fill="#E6E6E6"/>
<path opacity="0.15" d="M158.295 257.398C158.312 257.746 158.349 258.093 158.404 258.437C157.462 256.991 156.92 255.321 156.833 253.597C156.82 253.333 156.792 253.07 156.755 252.808C157.67 254.173 158.202 255.758 158.295 257.398Z" fill="black"/>
<path opacity="0.15" d="M155.253 245.65C154.486 245.982 153.677 246.211 152.849 246.329C152.53 245.993 152.236 245.634 151.968 245.255C153.025 245.608 154.143 245.743 155.253 245.65Z" fill="black"/>
<path opacity="0.15" d="M151.71 242.476C151.625 243.311 151.648 244.154 151.779 244.984C151.32 244.286 150.955 243.532 150.691 242.74L150.648 242.612L150.783 242.602C151.094 242.575 151.403 242.533 151.71 242.476Z" fill="black"/>
<path opacity="0.15" d="M152.605 233.302C153.494 232.292 154.585 231.479 155.806 230.914C157.028 230.35 158.353 230.045 159.699 230.021C160.554 230.011 161.398 229.82 162.175 229.462C162.952 229.103 163.644 228.585 164.207 227.941L164.287 227.85C165.025 227.011 165.862 226.265 166.781 225.63L166.851 225.581L166.913 225.64C167.5 226.193 168.156 226.667 168.865 227.05C168.349 226.511 167.921 225.894 167.598 225.222L167.553 225.134L167.639 225.084C169.493 223.998 171.577 223.367 173.722 223.241C175.867 223.115 178.011 223.497 179.979 224.357C181.948 225.218 183.685 226.531 185.05 228.191C186.414 229.85 187.367 231.809 187.83 233.907C186.938 232.339 185.743 230.964 184.316 229.862C182.888 228.76 181.256 227.951 179.514 227.484C177.772 227.017 175.955 226.9 174.167 227.141C172.379 227.381 170.657 227.974 169.101 228.885L169.015 228.935L169.06 229.023C169.384 229.695 169.811 230.312 170.327 230.852C169.618 230.468 168.962 229.994 168.375 229.441L168.313 229.383L168.243 229.431C167.324 230.067 166.487 230.812 165.749 231.651L165.669 231.742C165.106 232.386 164.414 232.905 163.637 233.263C162.86 233.622 162.016 233.812 161.161 233.823C158.924 233.861 156.77 234.673 155.065 236.122C153.36 237.571 152.211 239.566 151.812 241.767C151.34 241.683 150.872 241.569 150.414 241.427L150.351 241.408L150.34 241.344C150.089 239.92 150.163 238.457 150.555 237.065C150.947 235.672 151.647 234.386 152.605 233.302Z" fill="black"/>
<path d="M141.771 171.126C147.467 165.603 150.725 157.617 150.725 149.191C150.725 149.135 150.725 149.079 150.725 149.024L150.724 148.867C150.722 143.359 152.183 137.948 154.958 133.19L155.176 132.816L155.487 133.117C157.895 135.449 160.672 137.365 163.707 138.789C161.342 136.654 159.361 133.734 157.543 129.726L157.456 129.536L157.587 129.374C160.402 125.87 163.943 123.017 167.966 121.012C171.989 119.007 176.398 117.898 180.891 117.76C185.384 117.622 189.853 118.459 193.992 120.213C198.13 121.967 201.839 124.597 204.864 127.922C206.709 129.967 208.964 131.601 211.483 132.717C214.001 133.833 216.727 134.406 219.482 134.397L219.871 134.396C223.468 134.395 227.052 134.835 230.543 135.705L230.809 135.771L230.799 136.045C230.709 138.64 230.959 141.235 231.541 143.765C231.747 141.371 232.329 139.024 233.266 136.812L233.385 136.517L233.687 136.617C243.587 139.903 251.995 146.605 257.404 155.524C262.813 164.443 264.871 174.996 263.209 185.294C261.547 195.592 256.273 204.962 248.333 211.727C240.392 218.491 230.302 222.208 219.871 222.211C217.403 222.211 214.939 222.006 212.505 221.597C198.308 219.202 184.671 219.82 171.971 223.433C169.175 224.226 166.283 224.627 163.377 224.625C162.882 224.625 162.37 224.612 161.855 224.587L161.257 224.559L161.589 224.06C162.563 222.568 163.72 221.204 165.034 220C162.696 221.089 160.509 222.477 158.529 224.129L158.41 224.228L158.256 224.203C152.57 223.257 147.258 220.75 142.914 216.961C138.57 213.172 135.365 208.251 133.655 202.746C131.945 197.241 131.798 191.369 133.232 185.786C134.665 180.203 137.621 175.127 141.771 171.126Z" fill="#E6E6E6"/>
<g opacity="0.15">
<path d="M170.303 119.954C171.376 121.735 172.696 123.355 174.224 124.765C172.037 123.738 169.98 122.452 168.098 120.935C168.82 120.58 169.555 120.253 170.303 119.954Z" fill="black"/>
<path d="M152.289 157.102C150.596 158.745 149.095 160.574 147.814 162.554C149.742 158.363 150.735 153.804 150.725 149.191C150.725 149.135 150.725 149.079 150.725 149.024L150.724 148.867C150.722 143.358 152.183 137.948 154.958 133.19L155.176 132.816L155.487 133.117C157.203 134.776 159.108 136.226 161.163 137.439C160.633 145.016 157.47 152.078 152.289 157.102Z" fill="black"/>
<path d="M161.242 134.843L161.243 135C161.243 135.055 161.243 135.111 161.243 135.167C161.243 135.472 161.238 135.777 161.229 136.081C159.763 134.109 158.527 131.977 157.543 129.726L157.456 129.536L157.587 129.374C159.229 127.33 161.12 125.501 163.217 123.928C161.912 127.419 161.243 131.116 161.242 134.843Z" fill="black"/>
<path d="M141.771 171.126C143.268 169.67 144.598 168.051 145.737 166.301C143.697 170.646 142.692 175.405 142.799 180.204C142.906 185.004 144.123 189.713 146.354 193.963C148.586 198.214 151.771 201.889 155.661 204.703C159.55 207.516 164.039 209.391 168.774 210.179L168.928 210.204L169.047 210.105C171.027 208.453 173.214 207.065 175.552 205.976C174.238 207.18 173.081 208.544 172.107 210.036L171.775 210.535L172.372 210.563C172.888 210.588 173.4 210.601 173.895 210.601C176.801 210.603 179.693 210.202 182.489 209.409C195.188 205.796 208.826 205.178 223.022 207.573C225.457 207.982 227.921 208.188 230.389 208.187C241.149 208.196 251.533 204.236 259.555 197.065C255.997 204.581 250.379 210.934 243.355 215.385C236.33 219.836 228.187 222.203 219.871 222.211C217.403 222.211 214.939 222.006 212.504 221.597C198.308 219.202 184.671 219.82 171.971 223.433C169.175 224.226 166.283 224.627 163.377 224.625C162.882 224.625 162.37 224.612 161.855 224.587L161.257 224.559L161.589 224.06C162.563 222.568 163.72 221.204 165.034 220C162.696 221.089 160.509 222.477 158.529 224.129L158.41 224.228L158.256 224.203C152.57 223.257 147.258 220.75 142.914 216.961C138.57 213.172 135.364 208.251 133.655 202.746C131.945 197.241 131.798 191.369 133.231 185.786C134.665 180.203 137.621 175.127 141.771 171.126Z" fill="black"/>
</g>
<path d="M22.136 257.597C17.1063 257.596 12.2398 255.812 8.40164 252.562C4.56351 249.311 2.00252 244.805 1.17399 239.844L1.15686 239.739L1.22455 239.658C2.35251 238.305 3.30028 236.812 4.04412 235.216C3.22193 236.113 2.29045 236.903 1.27151 237.568L0.931425 237.794L0.911813 237.387C0.894685 237.035 0.886116 236.685 0.886116 236.347C0.884402 234.363 1.15822 232.388 1.69972 230.479C4.16678 221.808 4.58864 212.497 2.95369 202.804C2.67433 201.142 2.53396 199.459 2.53404 197.774C2.53655 190.651 5.07429 183.763 9.69283 178.341C14.3114 172.919 20.7091 169.318 27.7404 168.183C34.7717 167.048 41.9775 168.453 48.0673 172.147C54.1571 175.84 58.7333 181.581 60.9766 188.341L61.0448 188.547L60.8437 188.628C59.3329 189.268 57.7308 189.665 56.0963 189.806C57.8237 190.203 59.5955 190.374 61.3669 190.312L61.554 190.306L61.5995 190.488C62.1935 192.871 62.4936 195.318 62.4933 197.774L62.4921 198.04C62.4866 199.921 62.8774 201.782 63.6393 203.501C64.4012 205.221 65.5169 206.761 66.9138 208.02C69.1838 210.086 70.9795 212.618 72.1772 215.444C73.375 218.27 73.9464 221.321 73.8522 224.389C73.7579 227.456 73.0003 230.467 71.6314 233.214C70.2625 235.961 68.3148 238.378 65.9223 240.3L65.8115 240.39L65.6816 240.331C62.9452 239.089 60.9517 237.737 59.4938 236.122C60.4658 238.194 61.7743 240.091 63.3663 241.735L63.5721 241.947L63.3165 242.096C60.0675 243.99 56.3736 244.988 52.6126 244.986L52.5054 244.986C52.4676 244.986 52.4294 244.986 52.3916 244.986C49.6138 244.956 46.8581 245.482 44.2862 246.532C41.7142 247.582 39.3779 249.135 37.4141 251.1C35.4283 253.145 33.054 254.774 30.4304 255.89C27.8069 257.005 24.9869 257.586 22.136 257.597Z" fill="#E4E4E4"/>
<path d="M14.6158 291.079C14.5235 291.078 14.4344 291.045 14.3648 290.985C14.2951 290.924 14.2496 290.84 14.2366 290.749C14.2203 290.635 12.6243 279.124 14.0577 263.826C15.3814 249.699 19.6324 229.349 32.3668 212.637C32.3973 212.597 32.4354 212.563 32.4789 212.538C32.5225 212.513 32.5706 212.496 32.6205 212.489C32.6705 212.482 32.7213 212.486 32.77 212.498C32.8187 212.511 32.8644 212.534 32.9045 212.564C32.9446 212.595 32.9783 212.633 33.0036 212.676C33.029 212.72 33.0455 212.768 33.0522 212.818C33.0589 212.868 33.0557 212.919 33.0428 212.968C33.0299 213.016 33.0075 213.062 32.9769 213.102C20.3525 229.67 16.1358 249.87 14.8214 263.898C13.3964 279.107 14.9798 290.527 14.996 290.641C15.0037 290.695 14.9996 290.751 14.984 290.803C14.9684 290.856 14.9417 290.905 14.9057 290.946C14.8696 290.988 14.8251 291.021 14.7751 291.044C14.7251 291.067 14.6708 291.079 14.6158 291.079Z" fill="#3F3D56"/>
<path d="M20.9817 234.736C20.9006 234.736 20.8217 234.71 20.7561 234.662C20.6906 234.615 20.6417 234.548 20.6167 234.471C20.5916 234.394 20.5916 234.311 20.6166 234.234C20.6416 234.157 20.6903 234.089 20.7559 234.042C24.3844 231.586 28.3042 229.59 32.4252 228.101C38.8634 225.744 48.6536 223.608 58.7324 226.815C58.7806 226.83 58.8252 226.855 58.8639 226.887C58.9025 226.92 58.9344 226.96 58.9576 227.004C58.9809 227.049 58.9951 227.098 58.9994 227.148C59.0037 227.199 58.998 227.249 58.9827 227.297C58.9674 227.345 58.9428 227.39 58.9102 227.429C58.8776 227.467 58.8378 227.499 58.7929 227.522C58.7481 227.545 58.6991 227.559 58.6488 227.563C58.5985 227.567 58.5479 227.562 58.4999 227.546C48.6275 224.404 39.0147 226.506 32.6889 228.822C28.6342 230.285 24.7772 232.247 21.2068 234.662C21.1414 234.71 21.0626 234.736 20.9817 234.736Z" fill="#3F3D56"/>
<path d="M62.0898 218.82C62.5327 218.7 62.9437 218.483 63.294 218.187C63.6442 217.89 63.9251 217.52 64.1169 217.103C64.3087 216.686 64.4067 216.232 64.4041 215.773C64.4014 215.314 64.2982 214.861 64.1016 214.446L70.8682 192.385L65.8911 191.399L59.7023 213.023C59.0274 213.399 58.514 214.01 58.2594 214.74C58.0048 215.47 58.0267 216.268 58.321 216.982C58.6153 217.697 59.1615 218.279 59.8561 218.617C60.5508 218.956 61.3455 219.028 62.0898 218.82Z" fill="#FFB6B6"/>
<path d="M71.2625 185.94C70.5442 185.655 69.7536 185.607 69.0061 185.803V185.807C68.7541 185.868 68.5103 185.958 68.2799 186.077C68.0272 186.201 67.791 186.356 67.5765 186.538C67.1126 186.923 66.7543 187.42 66.5351 187.982L63.2374 193.727C63.1426 193.89 63.0845 194.072 63.0671 194.26C63.0498 194.448 63.0736 194.637 63.1369 194.814C63.1988 194.993 63.2986 195.156 63.4294 195.293C63.5603 195.429 63.7192 195.535 63.8951 195.605L64.6076 195.883L67.9921 197.212L69.2391 197.706L70.0795 198.035C70.2551 198.104 70.4436 198.134 70.6321 198.124C70.8206 198.114 71.0047 198.063 71.1717 197.975C71.3387 197.887 71.4847 197.764 71.5997 197.614C71.7147 197.464 71.796 197.291 71.838 197.107L73.327 190.672C73.6792 189.77 73.6597 188.766 73.2727 187.879C72.8857 186.992 72.1628 186.295 71.2625 185.94Z" fill="#3F3D56"/>
<path d="M81.0695 285.21H84.5152L86.1549 271.92H81.0695V285.21Z" fill="#FFB6B6"/>
<path d="M79.2511 291.18H81.7219L82.163 288.847L83.2925 291.18H89.8459C90.16 291.18 90.4659 291.079 90.7189 290.893C90.972 290.707 91.1589 290.445 91.2523 290.145C91.3458 289.845 91.341 289.523 91.2386 289.226C91.1361 288.929 90.9414 288.673 90.6829 288.494L85.4497 284.88V282.522L79.9452 282.85L79.2511 291.18Z" fill="#2F2E41"/>
<path d="M47.5613 278.374L50.5247 280.131L58.7143 269.537L54.3404 266.943L47.5613 278.374Z" fill="#FFB6B6"/>
<path d="M42.9522 282.581L45.0774 283.841L46.6467 282.06L46.4283 284.642L52.0649 287.985C52.3351 288.145 52.6494 288.215 52.962 288.184C53.2746 288.153 53.5691 288.023 53.8025 287.813C54.0359 287.602 54.1959 287.323 54.2593 287.015C54.3227 286.708 54.286 286.388 54.1547 286.102L51.4971 280.324L52.7001 278.296L47.798 275.771L42.9522 282.581Z" fill="#2F2E41"/>
<path d="M82.6073 200.237L84.2817 210.911L68.3754 211.12L70.4687 200.865L82.6073 200.237Z" fill="#FFB6B6"/>
<path d="M84.343 210.776L88.8861 221.794L89.2171 251.259L85.3402 279.392H81.0498L79.2919 251.718L74.9683 232.782L70.7041 252.587L57.4452 271.972H50.93L62.9083 250.61L64.2945 227.34C64.2945 227.34 63.4305 217.469 67.8525 211.643L68.9288 208.534L84.343 210.776Z" fill="#2F2E41"/>
<path d="M84.563 190.407C84.5539 190.311 84.5402 190.21 84.5219 190.115C84.1781 187.812 82.9359 185.738 81.0672 184.349C79.1985 182.96 76.8556 182.367 74.5511 182.701C72.3869 183.026 70.4153 184.129 69.0061 185.803V185.807C68.9331 185.894 68.8645 185.986 68.796 186.077C68.6727 186.232 68.5585 186.397 68.4489 186.561C67.4588 188.057 66.9489 189.819 66.9873 191.613V191.617C67.0016 192.308 67.0982 192.995 67.275 193.663C67.5793 194.832 67.8187 196.017 67.9921 197.212C68.1109 197.971 68.2023 198.715 68.2708 199.441C68.3119 199.807 68.3439 200.168 68.3713 200.519V200.524C68.5083 202.264 68.554 203.826 68.5951 205.037C68.6133 205.694 68.6316 206.242 68.6636 206.663C68.6644 206.69 68.6674 206.718 68.6727 206.745C68.7078 207.027 68.829 207.292 69.0198 207.503C69.0433 207.533 69.0693 207.56 69.0975 207.585C69.3001 207.767 69.545 207.896 69.81 207.96C69.9017 207.978 69.9951 207.987 70.0886 207.987H70.1161L72.7789 206.745L74.8799 205.767L82.0098 202.442C82.302 202.436 82.5854 202.341 82.8221 202.17C83.0588 201.998 83.2376 201.759 83.3344 201.483V201.479C83.3435 201.442 83.3572 201.405 83.3664 201.364C83.75 199.852 84.4306 198.231 84.6727 195.623C84.7046 195.248 84.732 194.86 84.7457 194.445V194.44C84.7858 193.093 84.7248 191.745 84.563 190.407Z" fill="#3F3D56"/>
<path d="M74.6609 181.257C78.3752 181.257 81.3863 178.246 81.3863 174.532C81.3863 170.818 78.3752 167.807 74.6609 167.807C70.9466 167.807 67.9355 170.818 67.9355 174.532C67.9355 178.246 70.9466 181.257 74.6609 181.257Z" fill="#FFB6B6"/>
<path d="M67.4806 184.985C66.0639 184.987 64.7057 185.551 63.7039 186.552C62.7021 187.554 62.1385 188.912 62.1367 190.329V201.405C62.1362 202.65 62.571 203.857 63.3659 204.815C64.1608 205.773 65.2657 206.424 66.4895 206.653H66.494C66.8194 206.714 67.1497 206.745 67.4806 206.745H74.88V184.985H67.4806Z" fill="#00C7A9"/>
<path d="M67.5765 186.077V194.157C67.5765 194.404 67.6747 194.641 67.8494 194.816C68.0242 194.99 68.2612 195.089 68.5083 195.089C68.7554 195.089 68.9924 194.99 69.1672 194.816C69.3419 194.641 69.4401 194.404 69.4401 194.157V186.077H67.5765Z" fill="#3F3D56"/>
<path d="M71.6827 199.441H66.2656C66.1111 199.441 65.9581 199.472 65.8155 199.531C65.6728 199.591 65.5432 199.678 65.4342 199.787C65.3251 199.896 65.2388 200.026 65.18 200.169C65.1213 200.312 65.0913 200.465 65.0918 200.62V203.858C65.0915 204.17 65.215 204.469 65.435 204.69C65.6551 204.911 65.9538 205.036 66.2656 205.037H71.6827C71.995 205.036 72.2943 204.911 72.5151 204.691C72.736 204.47 72.8604 204.17 72.8611 203.858V200.62C72.8611 200.465 72.8307 200.312 72.7714 200.169C72.7122 200.026 72.6254 199.896 72.516 199.787C72.4066 199.677 72.2767 199.59 72.1337 199.531C71.9907 199.472 71.8375 199.441 71.6827 199.441Z" fill="#3F3D56"/>
<path d="M81.6896 198.417C83.1669 196.542 83.9468 194.212 83.8956 191.825C83.8956 187.026 81.0371 183.122 77.5237 183.122C75.6374 183.122 73.8603 184.249 72.648 186.215L73.1771 186.541C74.2736 184.763 75.8579 183.744 77.5237 183.744C80.6944 183.744 83.2739 187.369 83.2739 191.825C83.3256 194.065 82.598 196.253 81.2153 198.015L81.6896 198.417Z" fill="#00C7A9"/>
<path d="M96.3454 214.667C96.5487 214.255 96.6594 213.804 96.6695 213.345C96.6796 212.886 96.5889 212.431 96.404 212.011C96.219 211.591 95.9441 211.216 95.5988 210.914C95.2534 210.611 94.846 210.388 94.4051 210.26L82.3783 190.567L78.3395 193.638L90.4227 212.61C90.2569 213.365 90.3739 214.154 90.7513 214.829C91.1287 215.503 91.7403 216.015 92.4704 216.269C93.2005 216.523 93.9982 216.5 94.7123 216.204C95.4265 215.909 96.0076 215.362 96.3454 214.667Z" fill="#FFB6B6"/>
<path d="M86.5545 192.969L84.522 190.115L83.4349 188.589L82.727 187.593C82.5047 187.155 82.1954 186.766 81.818 186.451C81.1739 185.912 80.3635 185.612 79.5235 185.6C78.6836 185.589 77.8653 185.867 77.2066 186.388C76.5479 186.91 76.0891 187.642 75.9074 188.462C75.7257 189.283 75.8323 190.14 76.2091 190.891L78.3193 197.171C78.3803 197.35 78.4789 197.514 78.6086 197.651C78.7383 197.788 78.896 197.896 79.071 197.967C79.246 198.038 79.4342 198.071 79.6229 198.063C79.8116 198.055 79.9963 198.006 80.1646 197.92L80.8452 197.573L81.9185 197.025L82.8823 196.536H82.8868L84.6727 195.623L85.2802 195.317L86.0841 194.906C86.2519 194.819 86.3991 194.697 86.5158 194.549C86.6326 194.4 86.716 194.228 86.7606 194.045C86.8052 193.861 86.8099 193.67 86.7744 193.485C86.7388 193.299 86.6638 193.123 86.5545 192.969Z" fill="#3F3D56"/>
<path d="M404.375 291.625H1.30603C1.25077 291.625 1.19602 291.614 1.14491 291.593C1.09381 291.572 1.04735 291.541 1.00821 291.502C0.969074 291.463 0.938019 291.417 0.916829 291.366C0.89564 291.315 0.884735 291.26 0.884735 291.205C0.884735 291.15 0.89564 291.095 0.916829 291.044C0.938019 290.993 0.969074 290.947 1.00821 290.908C1.04735 290.869 1.09381 290.838 1.14491 290.817C1.19602 290.796 1.25077 290.785 1.30603 290.785H404.375C404.486 290.785 404.593 290.829 404.672 290.908C404.75 290.987 404.795 291.094 404.795 291.205C404.795 291.316 404.75 291.423 404.672 291.502C404.593 291.581 404.486 291.625 404.375 291.625Z" fill="#CCCCCC"/>
<path d="M214.509 256.424C212.743 253.155 212.497 248.87 214.665 245.853C215.737 249.748 218.153 253.139 221.485 255.425C222.773 256.302 224.297 257.144 224.737 258.638C224.969 259.591 224.826 260.597 224.338 261.447C223.851 262.287 223.258 263.061 222.575 263.75L222.512 263.984C219.316 262.09 216.275 259.694 214.509 256.424Z" fill="#E6E6E6"/>
<path d="M106.259 173.752C104.493 170.483 104.247 166.198 106.415 163.181C107.487 167.077 109.903 170.468 113.235 172.754C114.523 173.631 116.047 174.472 116.488 175.967C116.719 176.92 116.577 177.925 116.089 178.776C115.601 179.615 115.009 180.389 114.325 181.078L114.262 181.312C111.066 179.418 108.025 177.022 106.259 173.752Z" fill="#E6E6E6"/>
<path d="M70.5591 169.045V169.049C70.5598 169.342 70.5225 169.633 70.4481 169.916C70.4363 169.966 70.4221 170.018 70.4056 170.067V170.07C70.2471 170.575 69.9737 171.037 69.6068 171.419C69.24 171.801 68.7897 172.093 68.2911 172.272C68.2179 172.3 68.1423 172.324 68.0667 172.345C67.9074 172.391 67.7447 172.424 67.58 172.444C67.4321 172.465 67.2829 172.475 67.1335 172.475C67.0168 172.475 66.9001 172.47 66.7839 172.458C66.512 172.431 66.2446 172.37 65.9877 172.276C65.9475 172.265 65.908 172.251 65.8696 172.234C65.8503 172.227 65.8313 172.219 65.8129 172.21C65.3843 172.031 64.9966 171.766 64.6734 171.432C64.3502 171.099 64.0982 170.703 63.9328 170.269C63.7673 169.834 63.6917 169.371 63.7108 168.907C63.7298 168.443 63.8429 167.987 64.0434 167.568L64.0457 167.566C64.2137 167.214 64.4415 166.894 64.719 166.621C65.3598 165.981 66.2283 165.623 67.1335 165.624C67.1784 165.623 67.2234 165.624 67.2682 165.628C67.7895 165.65 68.2991 165.79 68.7583 166.037C69.2176 166.285 69.6144 166.634 69.9189 167.058C70.1825 167.423 70.3704 167.838 70.4717 168.277C70.5297 168.529 70.559 168.786 70.5591 169.045Z" fill="#2F2E41"/>
<path d="M66.6058 166.967C66.3046 165.832 65.6538 164.82 64.7457 164.076C63.8375 163.331 62.718 162.892 61.5459 162.819C60.3738 162.746 59.2085 163.045 58.2153 163.671C57.2222 164.298 56.4514 165.221 56.0123 166.31C55.2765 168.136 55.5462 170.207 55.1054 172.125C54.661 173.867 53.6577 175.415 52.2493 176.532C50.8409 177.648 49.1051 178.273 47.308 178.308L53.9753 180.995C54.6872 181.359 55.4854 181.521 56.2829 181.462C57.443 181.266 58.2503 180.158 58.5771 179.027C58.9039 177.897 58.8774 176.697 59.0843 175.538C59.3528 174.115 59.9642 172.779 60.8656 171.646C61.767 170.512 62.9312 169.615 64.2573 169.033C65.008 168.713 65.8422 168.471 66.373 167.851C66.9038 167.231 66.8742 166.06 66.105 165.787" fill="#2F2E41"/>
<path d="M77.4103 166.994C76.5059 165.018 74.1196 165.42 71.962 165.68C70.8845 165.847 69.8639 166.273 68.9884 166.923C68.1129 167.572 67.4091 168.426 66.9377 169.409C66.0155 171.401 65.8392 173.658 66.4409 175.77C66.7637 177.208 67.534 178.506 68.6412 179.479C69.7807 180.395 75.1374 182.562 75.5834 180.696C75.0259 183.131 76.1474 182.75 77.8075 184.616C78.6673 182.033 79.0704 177.166 79.9302 174.584L80.3185 173.417C80.5913 172.598 80.8645 171.777 81.0616 170.936C81.3093 169.879 81.4046 168.668 80.7484 167.804C80.0922 166.94 78.4391 166.906 78.1074 167.939" fill="#2F2E41"/>
<path d="M76.3276 175.219L76.0401 173.388C76.2355 171.112 75.9165 167.492 77.4103 166.994L78.3238 167.907C77.746 168.1 76.6469 171.504 76.3276 175.219Z" fill="#FF6584"/>
</g>
<defs>
<clipPath id="clip0_21_157">
<rect width="426.165" height="291" fill="white" transform="translate(0 0.625)"/>
</clipPath>
</defs>
</svg>
