<svg width="32" height="32" viewBox="0 0 32 32" fill="none" xmlns="http://www.w3.org/2000/svg">
<g clip-path="url(#clip0_293_647)">
<path d="M16 0C7.17756 0 0 7.17756 0 16C0 24.8224 7.17756 32 16 32C24.8224 32 32 24.8224 32 16C32 7.17756 24.8224 0 16 0ZM16 30.1694C8.18692 30.1694 1.83059 23.813 1.83059 16C1.83059 8.18703 8.18692 1.83059 16 1.83059C23.8131 1.83059 30.1694 8.18703 30.1694 16C30.1694 23.813 23.8131 30.1694 16 30.1694Z" fill="#919191"/>
<path d="M19.7057 7.31738H17.536C15.7602 7.31738 14.3155 8.76213 14.3155 10.5379V12.9787H12.2942C11.7887 12.9787 11.3789 13.3884 11.3789 13.894C11.3789 14.3995 11.7887 14.8093 12.2942 14.8093H14.3155V23.2842C14.3155 23.7898 14.7252 24.1995 15.2308 24.1995C15.7363 24.1995 16.1461 23.7898 16.1461 23.2842V14.8093H19.2733C19.7789 14.8093 20.1886 14.3995 20.1886 13.894C20.1886 13.3884 19.7789 12.9787 19.2733 12.9787H16.1461V10.5379C16.1461 9.7715 16.7696 9.14798 17.536 9.14798H19.7056C20.2111 9.14798 20.6209 8.73823 20.6209 8.23268C20.6209 7.72713 20.2111 7.31738 19.7057 7.31738Z" fill="#919191"/>
</g>
<defs>
<clipPath id="clip0_293_647">
<rect width="32" height="32" fill="white"/>
</clipPath>
</defs>
</svg>
