<svg width="48" height="49" viewBox="0 0 48 49" fill="none" xmlns="http://www.w3.org/2000/svg">
<g clip-path="url(#clip0_75_143)">
<path d="M13.425 27.3334L6 33.3334V9.33337C6 8.93555 6.15804 8.55402 6.43934 8.27271C6.72064 7.99141 7.10218 7.83337 7.5 7.83337H31.5C31.8978 7.83337 32.2794 7.99141 32.5607 8.27271C32.842 8.55402 33 8.93555 33 9.33337V25.8334C33 26.2312 32.842 26.6127 32.5607 26.894C32.2794 27.1753 31.8978 27.3334 31.5 27.3334H13.425Z" stroke="#007A68" stroke-width="2" stroke-linecap="round" stroke-linejoin="round"/>
<path d="M13.425 27.3334L6 33.3334V9.33337C6 8.93555 6.15804 8.55402 6.43934 8.27271C6.72064 7.99141 7.10218 7.83337 7.5 7.83337H31.5C31.8978 7.83337 32.2794 7.99141 32.5607 8.27271C32.842 8.55402 33 8.93555 33 9.33337V25.8334C33 26.2312 32.842 26.6127 32.5607 26.894C32.2794 27.1753 31.8978 27.3334 31.5 27.3334H13.425Z" stroke="#007A68" stroke-opacity="0.2" stroke-width="2" stroke-linecap="round" stroke-linejoin="round"/>
<path d="M15 27.3334V34.8334C15 35.2312 15.158 35.6127 15.4393 35.894C15.7206 36.1753 16.1022 36.3334 16.5 36.3334H34.575L42 42.3334V18.3334C42 17.9355 41.842 17.554 41.5607 17.2727C41.2794 16.9914 40.8978 16.8334 40.5 16.8334H33" stroke="#007A68" stroke-width="2" stroke-linecap="round" stroke-linejoin="round"/>
<path d="M15 27.3334V34.8334C15 35.2312 15.158 35.6127 15.4393 35.894C15.7206 36.1753 16.1022 36.3334 16.5 36.3334H34.575L42 42.3334V18.3334C42 17.9355 41.842 17.554 41.5607 17.2727C41.2794 16.9914 40.8978 16.8334 40.5 16.8334H33" stroke="black" stroke-opacity="0.2" stroke-width="2" stroke-linecap="round" stroke-linejoin="round"/>
</g>
<defs>
<clipPath id="clip0_75_143">
<rect width="48" height="48" fill="white" transform="translate(0 0.333374)"/>
</clipPath>
</defs>
</svg>
