<svg width="24" height="25" viewBox="0 0 24 25" fill="none" xmlns="http://www.w3.org/2000/svg">
<g clip-path="url(#clip0_75_135)">
<path d="M6.7125 13.8334L3 16.8334V4.83337C3 4.63446 3.07902 4.4437 3.21967 4.30304C3.36032 4.16239 3.55109 4.08337 3.75 4.08337H15.75C15.9489 4.08337 16.1397 4.16239 16.2803 4.30304C16.421 4.4437 16.5 4.63446 16.5 4.83337V13.0834C16.5 13.2823 16.421 13.4731 16.2803 13.6137C16.1397 13.7544 15.9489 13.8334 15.75 13.8334H6.7125Z" stroke="#007A68" stroke-width="1.5" stroke-linecap="round" stroke-linejoin="round"/>
<path d="M6.7125 13.8334L3 16.8334V4.83337C3 4.63446 3.07902 4.4437 3.21967 4.30304C3.36032 4.16239 3.55109 4.08337 3.75 4.08337H15.75C15.9489 4.08337 16.1397 4.16239 16.2803 4.30304C16.421 4.4437 16.5 4.63446 16.5 4.83337V13.0834C16.5 13.2823 16.421 13.4731 16.2803 13.6137C16.1397 13.7544 15.9489 13.8334 15.75 13.8334H6.7125Z" stroke="black" stroke-opacity="0.2" stroke-width="1.5" stroke-linecap="round" stroke-linejoin="round"/>
<path d="M7.5 13.8334V17.5834C7.5 17.7823 7.57902 17.9731 7.71967 18.1137C7.86032 18.2544 8.05109 18.3334 8.25 18.3334H17.2875L21 21.3334V9.33337C21 9.13446 20.921 8.9437 20.7803 8.80304C20.6397 8.66239 20.4489 8.58337 20.25 8.58337H16.5" stroke="#007A68" stroke-width="1.5" stroke-linecap="round" stroke-linejoin="round"/>
<path d="M7.5 13.8334V17.5834C7.5 17.7823 7.57902 17.9731 7.71967 18.1137C7.86032 18.2544 8.05109 18.3334 8.25 18.3334H17.2875L21 21.3334V9.33337C21 9.13446 20.921 8.9437 20.7803 8.80304C20.6397 8.66239 20.4489 8.58337 20.25 8.58337H16.5" stroke="black" stroke-opacity="0.2" stroke-width="1.5" stroke-linecap="round" stroke-linejoin="round"/>
</g>
<defs>
<clipPath id="clip0_75_135">
<rect width="24" height="24" fill="white" transform="translate(0 0.333374)"/>
</clipPath>
</defs>
</svg>
