<svg width="192" height="192" viewBox="0 0 192 192" fill="none" xmlns="http://www.w3.org/2000/svg">
<g clip-path="url(#clip0_357_539)">
<circle cx="96" cy="96" r="78" fill="#727272"/>
<path d="M96 30C82.9464 30 70.186 33.8708 59.3324 41.123C48.4787 48.3752 40.0194 58.683 35.024 70.7429C30.0286 82.8028 28.7216 96.0732 31.2682 108.876C33.8148 121.679 40.1007 133.439 49.331 142.669C58.5612 151.899 70.3213 158.185 83.1241 160.732C95.9268 163.278 109.197 161.971 121.257 156.976C133.317 151.981 143.625 143.521 150.877 132.668C158.129 121.814 162 109.054 162 96C161.966 78.506 155.002 61.7381 142.632 49.368C130.262 36.9979 113.494 30.0335 96 30V30ZM96 146.769C87.6539 146.763 79.438 144.699 72.0798 140.76C64.7216 136.821 58.4479 131.128 53.8142 124.187C49.1804 117.245 46.3295 109.268 45.5138 100.962C44.6981 92.6558 45.9427 84.2765 49.1376 76.5661C52.3324 68.8556 57.3789 62.0517 63.8302 56.7566C70.2816 51.4615 77.939 47.8385 86.1244 46.2085C94.3098 44.5784 102.771 44.9915 110.759 47.4112C118.746 49.8308 126.014 54.1824 131.919 60.0808C132.869 61.0325 133.402 62.322 133.402 63.6663C133.402 65.0107 132.869 66.3002 131.919 67.2519C131.452 67.7297 130.895 68.1094 130.279 68.3686C129.663 68.6278 129.002 68.7613 128.334 68.7613C127.666 68.7613 127.004 68.6278 126.388 68.3686C125.773 68.1094 125.215 67.7297 124.748 67.2519C118.256 60.7408 109.75 56.6208 100.617 55.5639C91.4836 54.5069 82.2615 56.5753 74.4543 61.4317C66.6472 66.2881 60.7155 73.6462 57.6264 82.3061C54.5374 90.966 54.4732 100.417 57.4443 109.118C60.4154 117.819 66.2466 125.257 73.987 130.219C81.7275 135.181 90.9206 137.375 100.068 136.442C109.215 135.509 117.776 131.505 124.355 125.083C130.935 118.661 135.144 110.199 136.298 101.077H96C94.6535 101.077 93.3622 100.542 92.4101 99.5899C91.458 98.6378 90.9231 97.3465 90.9231 96C90.9231 94.6535 91.458 93.3622 92.4101 92.4101C93.3622 91.458 94.6535 90.9231 96 90.9231H141.692C143.039 90.9231 144.33 91.458 145.282 92.4101C146.234 93.3622 146.769 94.6535 146.769 96C146.752 109.46 141.398 122.363 131.881 131.881C122.363 141.398 109.46 146.752 96 146.769V146.769Z" fill="#F5F5F5"/>
</g>
<defs>
<clipPath id="clip0_357_539">
<rect width="192" height="192" fill="white"/>
</clipPath>
</defs>
</svg>
