<svg width="32" height="32" viewBox="0 0 32 32" fill="none" xmlns="http://www.w3.org/2000/svg">
<path d="M16 0C7.17756 0 0 7.17756 0 16C0 24.8224 7.17756 32 16 32C24.8224 32 32 24.8224 32 16C32 7.17756 24.8224 0 16 0ZM16 30.1694C8.18692 30.1694 1.83059 23.813 1.83059 16C1.83059 8.18703 8.18692 1.83059 16 1.83059C23.8131 1.83059 30.1694 8.18703 30.1694 16C30.1694 23.813 23.8131 30.1694 16 30.1694Z" fill="#919191"/>
<path d="M22.9494 15.0848H16.6864C16.1808 15.0848 15.7711 15.4945 15.7711 16.0001C15.7711 16.5056 16.1808 16.9154 16.6864 16.9154H21.9649C21.5225 19.8099 19.0161 22.0342 16 22.0342C12.6727 22.0342 9.96585 19.3274 9.96585 16.0001C9.96585 12.6728 12.6728 9.96595 16 9.96595C17.5223 9.96595 18.976 10.5345 20.0933 11.5665C20.4648 11.9096 21.0438 11.8866 21.3867 11.5153C21.7298 11.144 21.7068 10.5649 21.3356 10.2219C19.879 8.87634 17.9842 8.13525 16 8.13525C11.6633 8.13525 8.13525 11.6633 8.13525 16C8.13525 20.3367 11.6633 23.8647 16 23.8647C20.3367 23.8647 23.8647 20.3367 23.8647 16C23.8647 15.4945 23.4549 15.0848 22.9494 15.0848Z" fill="#919191"/>
</svg>
