<svg width="32" height="32" viewBox="0 0 32 32" fill="none" xmlns="http://www.w3.org/2000/svg">
<path d="M16 0C7.17756 0 0 7.17756 0 16C0 24.8224 7.17756 32 16 32C24.8224 32 32 24.8224 32 16C32 7.17756 24.8224 0 16 0ZM16 30.1694C8.18692 30.1694 1.83059 23.813 1.83059 16C1.83059 8.18703 8.18692 1.83059 16 1.83059C23.8131 1.83059 30.1694 8.18703 30.1694 16C30.1694 23.813 23.8131 30.1694 16 30.1694Z" fill="#919191"/>
<path d="M11.4236 12.3179C10.918 12.3179 10.5083 12.7276 10.5083 13.2332V20.801C10.5083 21.3066 10.918 21.7163 11.4236 21.7163C11.9291 21.7163 12.3389 21.3066 12.3389 20.801V13.2332C12.3389 12.7276 11.9291 12.3179 11.4236 12.3179Z" fill="#919191"/>
<path d="M11.4236 8.04614C11.1826 8.04614 10.9466 8.14377 10.7768 8.31463C10.6059 8.48447 10.5083 8.72041 10.5083 8.96144C10.5083 9.20247 10.6059 9.43831 10.7768 9.60927C10.9466 9.7791 11.1826 9.87674 11.4236 9.87674C11.6646 9.87674 11.9006 9.7791 12.0704 9.60927C12.2413 9.43831 12.3389 9.20247 12.3389 8.96144C12.3389 8.72041 12.2413 8.48447 12.0704 8.31463C11.9006 8.14377 11.6646 8.04614 11.4236 8.04614Z" fill="#919191"/>
<path d="M19.3306 13.0298C18.3726 13.0298 17.4859 13.3385 16.7627 13.8606V13.2332C16.7627 12.7276 16.353 12.3179 15.8474 12.3179C15.3419 12.3179 14.9321 12.7276 14.9321 13.2332V20.801C14.9321 21.3066 15.3419 21.7163 15.8474 21.7163C16.353 21.7163 16.7627 21.3066 16.7627 20.801V17.4283C16.7627 16.0123 17.9147 14.8604 19.3306 14.8604C20.7466 14.8604 21.8986 16.0123 21.8986 17.4283V21.0044C21.8986 21.51 22.3083 21.9197 22.8139 21.9197C23.3194 21.9197 23.7291 21.51 23.7291 21.0044V17.4283C23.7291 15.0029 21.756 13.0298 19.3306 13.0298Z" fill="#919191"/>
</svg>
