<svg width="280" height="218" viewBox="0 0 280 218" fill="none" xmlns="http://www.w3.org/2000/svg">
<g clip-path="url(#clip0_21_156)">
<path d="M214.345 198.18C222.579 198.18 229.254 184.56 229.254 167.759C229.254 150.958 222.579 137.339 214.345 137.339C206.111 137.339 199.436 150.958 199.436 167.759C199.436 184.56 206.111 198.18 214.345 198.18Z" fill="#3F3D56"/>
<path d="M212.968 217.553C218.94 181.726 213.028 146.03 212.968 145.674L211.807 145.87C211.867 146.225 217.744 181.734 211.806 217.359L212.968 217.553Z" fill="#CACACA"/>
<path d="M201.219 161.218L200.663 162.257L214.145 169.468L214.701 168.429L201.219 161.218Z" fill="#CACACA"/>
<path d="M228.374 164.83L214.894 172.046L215.45 173.084L228.93 165.869L228.374 164.83Z" fill="#CACACA"/>
<path d="M250.167 179.113C266.272 179.113 279.328 152.475 279.328 119.614C279.328 86.7542 266.272 60.1156 250.167 60.1156C234.062 60.1156 221.007 86.7542 221.007 119.614C221.007 152.475 234.062 179.113 250.167 179.113Z" fill="#E6E6E6"/>
<path d="M246.919 216.912C258.583 146.933 247.037 77.208 246.919 76.5119L245.757 76.7087C245.875 77.403 257.387 146.94 245.757 216.719L246.919 216.912Z" fill="#CACACA"/>
<path d="M224.228 107.317L223.673 108.356L250.042 122.46L250.598 121.421L224.228 107.317Z" fill="#CACACA"/>
<path d="M277.871 114.382L251.506 128.494L252.062 129.533L278.427 115.421L277.871 114.382Z" fill="#CACACA"/>
<path d="M182.442 217.099H27.3368C26.7664 217.099 26.2195 216.872 25.8161 216.468C25.4127 216.065 25.1858 215.518 25.1851 214.948V116.939C25.1858 116.368 25.4127 115.822 25.816 115.418C26.2194 115.015 26.7663 114.788 27.3368 114.787H182.442C183.013 114.788 183.56 115.015 183.963 115.418C184.367 115.822 184.593 116.368 184.594 116.939V214.948C184.593 215.518 184.367 216.065 183.963 216.468C183.56 216.872 183.013 217.099 182.442 217.099Z" fill="#E4E4E4"/>
<path d="M41.6008 126.664C41.3563 126.664 41.1219 126.761 40.9491 126.934C40.7762 127.107 40.6789 127.342 40.6787 127.586V204.301C40.6789 204.545 40.7762 204.78 40.9491 204.952C41.1219 205.125 41.3563 205.223 41.6008 205.223H168.178C168.423 205.223 168.657 205.125 168.83 204.952C169.003 204.78 169.1 204.545 169.101 204.301V127.586C169.1 127.342 169.003 127.107 168.83 126.934C168.657 126.761 168.423 126.664 168.178 126.664H41.6008Z" fill="white"/>
<path d="M169.408 146.423V141.561H151.508V126.356H146.646V141.561H114.778V126.356H109.917V141.561H60.7642V126.356H55.903V141.561H38.9062V146.423H55.903V165.327H38.9062V170.189H55.903V190.444H38.9062V195.305H82.0998V205.53H86.961V195.305H109.917V205.53H114.778V195.305H169.408V190.444H114.778V170.189H169.408V165.327H151.508V146.423H169.408ZM109.917 146.423V152.364H60.7642V146.423H109.917ZM60.7642 157.225H109.917V165.327H60.7642V157.225ZM60.7642 190.444V170.189H82.0998V190.444H60.7642ZM109.917 190.444H86.9611V170.189H109.917V190.444ZM146.646 165.327H114.778V146.423H146.646V165.327Z" fill="#E6E6E6"/>
<path d="M112.348 174.585C115.778 174.585 118.559 171.803 118.559 168.373C118.559 164.942 115.778 162.161 112.348 162.161C108.917 162.161 106.136 164.942 106.136 168.373C106.136 171.803 108.917 174.585 112.348 174.585Z" fill="#00C7A9"/>
<path d="M279.879 217.625H0V216.954H280L279.879 217.625Z" fill="#CACACA"/>
<path d="M113.092 131.473C134.254 131.473 151.409 114.318 151.409 93.1557C151.409 71.9936 134.254 54.8384 113.092 54.8384C91.93 54.8384 74.7748 71.9936 74.7748 93.1557C74.7748 114.318 91.93 131.473 113.092 131.473Z" fill="#00C7A9"/>
<path d="M113.467 155.444L101.361 134.765L89.2559 114.086L113.217 113.942L137.179 113.798L125.323 134.621L113.467 155.444Z" fill="#00C7A9"/>
<path d="M113.4 106.662C120.992 106.662 127.147 100.507 127.147 92.9147C127.147 85.322 120.992 79.167 113.4 79.167C105.807 79.167 99.652 85.322 99.652 92.9147C99.652 100.507 105.807 106.662 113.4 106.662Z" fill="white"/>
<path d="M112.206 1.11632C112.206 1.11632 104.007 -1.19329 101.582 10.0083C99.1565 21.2099 100.697 19.7985 100.697 19.7985L119 17.6621C119 17.6621 124.504 4.52298 112.206 1.11632Z" fill="#2F2E41"/>
<path d="M100.282 50.2579C100.282 50.2579 87.9122 50.8305 90.0544 55.686C90.2058 56.0292 90.3468 56.3508 90.4773 56.6507C92.0085 60.1676 93.771 63.5791 95.7532 66.863L103.356 79.4596L106.122 77.9226L98.3372 57.6853L105.335 57.1141L100.282 50.2579Z" fill="#FFB6B6"/>
<path d="M132.897 55.4004L136.895 64.1116C136.895 64.1116 139.894 67.1106 143.179 79.1064C146.463 91.1022 147.177 90.6738 147.177 90.6738L143.931 91.755L130.612 67.539L124.042 59.2562L126.042 54.8292L132.897 55.4004Z" fill="#FFB6B6"/>
<path d="M128.041 45.4039L133.787 56.0983C133.787 56.0983 146.814 81.6963 145.468 81.6113C143.954 81.5157 139.703 83.2799 138.398 84.9926C137.768 85.8192 128.561 65.6273 125.328 61.1127L118.33 55.686C118.33 55.686 98.4619 59.03 98.4376 57.9426C98.4257 57.41 105.016 70.1896 103.663 69.6233C102.123 68.9782 98.4983 72.1173 96.9007 71.4676C96.2415 71.1995 91.5836 59.9064 89.6981 55.2788C89.4616 54.7011 89.4493 54.0559 89.6636 53.4697C89.878 52.8834 90.3035 52.3983 90.8569 52.1094C92.2739 51.3725 111.963 46.8767 111.963 46.8767L111.618 45.1183L113.046 42.2621L128.041 45.4039Z" fill="#2F2E41"/>
<path d="M116.259 13.8783C116.751 10.8421 114.69 7.98129 111.653 7.48858C108.617 6.99588 105.756 9.05781 105.264 12.094C104.771 15.1303 106.833 17.991 109.869 18.4837C112.905 18.9764 115.766 16.9145 116.259 13.8783Z" fill="#FFB6B6"/>
<path d="M128.561 46.2619C128.869 47.1845 126.877 47.7145 124.101 47.1961C121.699 46.7477 119.07 46.215 116.996 45.7837C114.776 45.321 113.189 44.9754 113.189 44.9754C113.189 44.9754 112.618 48.5456 110.761 48.1172C109.162 47.7488 104.382 31.0532 103.09 26.4391C102.995 26.1022 103.014 25.7436 103.142 25.418C103.27 25.0924 103.501 24.8176 103.8 24.6354L110.364 20.6268C110.364 20.6268 114.889 19.073 116.538 19.0288C118.187 18.9845 121.044 18.5561 121.044 18.5561C121.044 18.5561 124.328 18.8417 124.899 21.2694C125.471 23.6971 127.854 38.0913 127.898 41.5481C127.947 45.3398 127.639 43.4955 128.561 46.2619Z" fill="#CACACA"/>
<path d="M112.844 5.83228C112.844 5.83228 110.534 11.9527 104.875 14.4933L103.952 9.06572L112.844 5.83228Z" fill="#2F2E41"/>
<path d="M116.188 12.344C116.622 12.344 116.974 11.6727 116.974 10.8446C116.974 10.0164 116.622 9.34509 116.188 9.34509C115.754 9.34509 115.403 10.0164 115.403 10.8446C115.403 11.6727 115.754 12.344 116.188 12.344Z" fill="#FFB6B6"/>
<path d="M108.424 80.8876L97.3839 85.9633L97.3197 85.8236C96.7958 84.684 96.746 83.3829 97.1813 82.2065C97.6167 81.0301 98.5015 80.0749 99.6411 79.5508L99.6414 79.5507L106.384 76.4507L108.424 80.8876Z" fill="#2F2E41"/>
<path d="M142.285 91.028L149.057 87.9922L149.057 87.9921C150.202 87.4791 151.503 87.4418 152.676 87.8883C153.848 88.3349 154.794 89.2288 155.308 90.3734L155.37 90.5136L144.282 95.4841L142.285 91.028Z" fill="#2F2E41"/>
<path opacity="0.2" d="M123.95 33.0443L122.658 47.2643L124.956 47.3728L123.95 33.0443Z" fill="black"/>
<path d="M114.938 59.6092C115.212 59.3034 115.416 58.9412 115.535 58.5483C115.653 58.1553 115.685 57.741 115.626 57.3347C115.567 56.9284 115.42 56.5398 115.195 56.1964C114.97 55.853 114.673 55.5631 114.324 55.3472L109.357 30.2565L103.653 32.4387L110.329 56.4158C110.005 57.0264 109.916 57.7346 110.08 58.4063C110.243 59.0779 110.647 59.6663 111.215 60.0599C111.783 60.4535 112.476 60.6251 113.162 60.542C113.849 60.4589 114.48 60.127 114.938 59.6092Z" fill="#FFB6B6"/>
<path d="M110.613 34.4852L104.35 35.5883C104.172 35.6197 103.989 35.6123 103.814 35.5666C103.639 35.521 103.476 35.4381 103.336 35.3237C103.196 35.2093 103.082 35.066 103.002 34.9036C102.922 34.7412 102.878 34.5635 102.873 34.3826L102.7 28.0447C102.545 27.132 102.758 26.1949 103.292 25.4388C103.826 24.6828 104.639 24.1695 105.551 24.0116C106.463 23.8537 107.401 24.064 108.159 24.5964C108.916 25.1288 109.431 25.9399 109.592 26.8518L111.59 32.8474C111.647 33.0191 111.666 33.2011 111.647 33.3809C111.627 33.5608 111.569 33.7344 111.477 33.8898C111.384 34.0453 111.259 34.1789 111.11 34.2816C110.961 34.3844 110.792 34.4538 110.613 34.4852H110.613Z" fill="#CACACA"/>
<path d="M119.74 59.1678C120.098 58.9659 120.407 58.6882 120.645 58.3541C120.884 58.0199 121.046 57.6376 121.121 57.2339C121.196 56.8302 121.181 56.4151 121.078 56.0177C120.975 55.6202 120.786 55.2503 120.525 54.9337L123.866 29.5753L117.763 29.8133L116.398 54.6649C115.896 55.1394 115.585 55.7818 115.524 56.4704C115.463 57.1589 115.657 57.8458 116.069 58.4008C116.481 58.9558 117.083 59.3405 117.759 59.4818C118.436 59.6232 119.141 59.5114 119.74 59.1678Z" fill="#FFB6B6"/>
<path d="M123.7 33.9837L117.414 33.0202C117.235 32.9928 117.064 32.9272 116.913 32.8278C116.762 32.7284 116.634 32.5976 116.538 32.4442C116.442 32.2909 116.38 32.1187 116.356 31.9393C116.333 31.7599 116.348 31.5775 116.402 31.4046L118.27 25.3459C118.415 24.4316 118.918 23.6122 119.666 23.0674C120.415 22.5227 121.349 22.297 122.264 22.44C123.178 22.5829 123.999 23.0828 124.546 23.8299C125.093 24.5771 125.321 25.5106 125.18 26.4257L125.15 32.7454C125.149 32.9264 125.109 33.105 125.033 33.2691C124.957 33.4333 124.846 33.579 124.709 33.6965C124.571 33.8141 124.41 33.9005 124.236 33.9501C124.062 33.9996 123.879 34.0111 123.7 33.9837Z" fill="#CACACA"/>
</g>
<defs>
<clipPath id="clip0_21_156">
<rect width="280" height="216.706" fill="white" transform="translate(0 0.919434)"/>
</clipPath>
</defs>
</svg>
