<svg width="24" height="24" viewBox="0 0 24 24" fill="none" xmlns="http://www.w3.org/2000/svg">
<g clip-path="url(#clip0_350_581)">
<path d="M8.8125 15.9375L12.75 12L8.8125 8.0625" stroke="#007A68" stroke-width="2" stroke-linecap="round" stroke-linejoin="round"/>
<path d="M8.8125 15.9375L12.75 12L8.8125 8.0625" stroke="black" stroke-opacity="0.2" stroke-width="2" stroke-linecap="round" stroke-linejoin="round"/>
<path d="M2.25 12H12.75" stroke="#007A68" stroke-width="2" stroke-linecap="round" stroke-linejoin="round"/>
<path d="M2.25 12H12.75" stroke="black" stroke-opacity="0.2" stroke-width="2" stroke-linecap="round" stroke-linejoin="round"/>
<path d="M12.75 3.75H18C18.1989 3.75 18.3897 3.82902 18.5303 3.96967C18.671 4.11032 18.75 4.30109 18.75 4.5V19.5C18.75 19.6989 18.671 19.8897 18.5303 20.0303C18.3897 20.171 18.1989 20.25 18 20.25H12.75" stroke="#007A68" stroke-width="2" stroke-linecap="round" stroke-linejoin="round"/>
<path d="M12.75 3.75H18C18.1989 3.75 18.3897 3.82902 18.5303 3.96967C18.671 4.11032 18.75 4.30109 18.75 4.5V19.5C18.75 19.6989 18.671 19.8897 18.5303 20.0303C18.3897 20.171 18.1989 20.25 18 20.25H12.75" stroke="black" stroke-opacity="0.2" stroke-width="2" stroke-linecap="round" stroke-linejoin="round"/>
</g>
<defs>
<clipPath id="clip0_350_581">
<rect width="24" height="24" fill="white"/>
</clipPath>
</defs>
</svg>
