<svg width="48" height="49" viewBox="0 0 48 49" fill="none" xmlns="http://www.w3.org/2000/svg">
<g clip-path="url(#clip0_76_12)">
<path d="M40.5 22.8334H7.5C7.10218 22.8334 6.72064 22.9914 6.43934 23.2727C6.15804 23.554 6 23.9355 6 24.3334C6 24.7312 6.15804 25.1127 6.43934 25.394C6.72064 25.6753 7.10218 25.8334 7.5 25.8334H40.5C40.8978 25.8334 41.2794 25.6753 41.5607 25.394C41.842 25.1127 42 24.7312 42 24.3334C42 23.9355 41.842 23.554 41.5607 23.2727C41.2794 22.9914 40.8978 22.8334 40.5 22.8334Z" fill="#F5F5F5"/>
<path d="M7.5 13.8334H40.5C40.8978 13.8334 41.2794 13.6753 41.5607 13.394C41.842 13.1127 42 12.7312 42 12.3334C42 11.9355 41.842 11.554 41.5607 11.2727C41.2794 10.9914 40.8978 10.8334 40.5 10.8334H7.5C7.10218 10.8334 6.72064 10.9914 6.43934 11.2727C6.15804 11.554 6 11.9355 6 12.3334C6 12.7312 6.15804 13.1127 6.43934 13.394C6.72064 13.6753 7.10218 13.8334 7.5 13.8334Z" fill="#F5F5F5"/>
<path d="M40.5 34.8334H7.5C7.10218 34.8334 6.72064 34.9914 6.43934 35.2727C6.15804 35.554 6 35.9355 6 36.3334C6 36.7312 6.15804 37.1127 6.43934 37.394C6.72064 37.6753 7.10218 37.8334 7.5 37.8334H40.5C40.8978 37.8334 41.2794 37.6753 41.5607 37.394C41.842 37.1127 42 36.7312 42 36.3334C42 35.9355 41.842 35.554 41.5607 35.2727C41.2794 34.9914 40.8978 34.8334 40.5 34.8334Z" fill="#F5F5F5"/>
</g>
<defs>
<clipPath id="clip0_76_12">
<rect width="48" height="48" fill="white" transform="translate(0 0.333374)"/>
</clipPath>
</defs>
</svg>
