<svg width="280" height="237" viewBox="0 0 280 237" fill="none" xmlns="http://www.w3.org/2000/svg">
<g clip-path="url(#clip0_21_34)">
<path d="M0 229.452C0 229.705 0.202835 229.907 0.45542 229.907H279.545C279.797 229.907 280 229.705 280 229.452C280 229.199 279.797 228.997 279.545 228.997H0.45542C0.202835 228.997 0 229.199 0 229.452Z" fill="#3F3D56"/>
<path d="M155.115 206.528V221.578L166.495 221.945L166.021 206.528H155.115Z" fill="#FFB6B6"/>
<path d="M152.863 214.902C152.709 214.902 152.559 214.922 152.413 214.964C150.359 215.55 138.471 226.164 134.877 229.403C134.432 229.803 134.197 230.374 134.229 230.97C134.261 231.564 134.557 232.104 135.039 232.451C137.765 234.414 143.35 237.52 150.126 236.265C153.243 235.687 156.389 235.324 159.164 235.004C165.106 234.318 169.799 233.776 169.799 231.673C169.799 228.104 168.817 218.699 167.585 218.304C167.473 218.27 167.344 218.356 167.195 218.565C165.31 221.203 158.837 219.799 158.563 219.739L158.491 219.722L158.45 219.661C158.416 219.611 155.247 214.902 152.863 214.902Z" fill="#2F2E41"/>
<path d="M133.824 206.528V221.578L145.204 221.945L144.73 206.528H133.824Z" fill="#FFB6B6"/>
<path d="M129.236 98.7893L123.179 103.378L122.078 155.136L132.356 211.667L145.755 212.218L146.122 158.257L163.375 109.068L159.887 97.5045L129.236 98.7893Z" fill="#2F2E41"/>
<path d="M157.501 107.599L163.375 109.068L167.596 211.667L152.362 210.382L142.267 137.884L157.501 107.599Z" fill="#2F2E41"/>
<path d="M125.7 236.919C120.478 236.919 116.235 234.611 113.969 233.055C113.284 232.585 112.861 231.838 112.806 231.007C112.752 230.168 113.079 229.365 113.703 228.803C119.328 223.744 129.057 215.172 131.021 214.611C133.566 213.881 136.983 218.75 137.422 219.395C138.133 219.541 143.961 220.654 145.605 218.351C145.919 217.912 146.213 217.893 146.406 217.954C148.164 218.518 148.875 229.83 148.875 231.673C148.875 234.104 144.278 234.634 137.916 235.369C135.146 235.688 132.007 236.051 128.902 236.625C127.802 236.829 126.732 236.919 125.7 236.919V236.919Z" fill="#2F2E41"/>
<path d="M82.7716 31.8247C80.8271 27.529 81.5588 23.0317 84.4055 21.7799C87.2523 20.528 91.1355 22.9955 93.0801 27.2929C93.8814 28.9988 94.2455 30.8738 94.142 32.7609L102.142 51.067L93.1193 54.6886L86.191 36.2576C84.6967 35.0727 83.5242 33.5526 82.7716 31.8247V31.8247Z" fill="#FFB6B6"/>
<path d="M138.057 39.5975L138.057 39.5975C142.934 44.1963 142.629 52.0427 137.409 56.2484L111.847 76.8442C109.057 79.092 104.917 78.2978 103.157 75.1773C96.4392 64.3019 95.1729 63.7055 91.2686 52.5593L102.279 48.708L108.487 56.4814L122.041 40.4922C126.137 35.6598 133.448 35.2514 138.057 39.5975V39.5975Z" fill="#00C7A9"/>
<path d="M141.822 31.7496L146.003 40.1729L130.2 47.8049L130.394 34.3014L141.822 31.7496Z" fill="#FFB6B6"/>
<path d="M130.257 38.1215C138.11 38.1215 144.476 31.7553 144.476 23.9021C144.476 16.049 138.11 9.68274 130.257 9.68274C122.404 9.68274 116.037 16.049 116.037 23.9021C116.037 31.7553 122.404 38.1215 130.257 38.1215Z" fill="#FFB6B6"/>
<path d="M130.161 44.521L144.741 35.9056L144.741 35.9056C155.434 43.4049 164.339 45.1594 164.622 58.2174L162.652 89.3656L162.767 102.78C162.816 108.412 158.264 113.003 152.632 113.003H131.813C126.303 113.003 122.198 107.92 123.358 102.534L127.289 84.2847L123.091 48.7183L130.161 44.521H130.161Z" fill="#00C7A9"/>
<path d="M48.8659 26.6509C48.8659 25.906 49.4698 25.302 50.2149 25.302H65.4106C66.1556 25.302 66.7595 25.9059 66.7595 26.6509V26.8348L104.237 29.0271C104.346 28.6008 104.729 28.2843 105.189 28.2843H109.174V25.3733C109.174 24.7239 109.701 24.1974 110.35 24.1974H111.162V21.6274C111.162 21.2167 111.495 20.8838 111.906 20.8838H114.174C114.585 20.8838 114.918 21.2167 114.918 21.6274V24.1974H115.664C115.611 24.0937 115.58 23.9825 115.58 23.8661C115.58 23.317 116.223 22.872 117.016 22.872C117.809 22.872 118.452 23.317 118.452 23.8661C118.452 24.0095 118.408 24.1455 118.329 24.2686C118.786 24.4299 119.115 24.8611 119.115 25.3733V40.4734C119.115 41.1228 118.589 41.6493 117.939 41.6493H110.35C109.701 41.6493 109.174 41.1228 109.174 40.4734V38.4461H105.189C104.676 38.4461 104.26 38.0527 104.213 37.552L66.6978 44.4599C66.5261 45.0075 66.0148 45.4047 65.4106 45.4047H50.2149C49.4698 45.4047 48.8659 44.8008 48.8659 44.0559C48.686 37.8953 49.0847 32.0425 48.8659 26.6509L48.8659 26.6509Z" fill="#3F3D56"/>
<path d="M107.545 36.133C105.651 31.8149 106.435 27.3265 109.297 26.1081C112.158 24.8896 116.012 27.4025 117.906 31.7224C118.687 33.4375 119.029 35.3166 118.904 37.2024L126.688 55.6009L117.624 59.1166L110.912 40.6057C109.432 39.4034 108.277 37.8697 107.545 36.1331V36.133Z" fill="#FFB6B6"/>
<path d="M162.736 44.5528L162.736 44.5528C167.559 49.2084 167.161 57.0507 161.893 61.195L136.091 81.49C133.275 83.705 129.144 82.8624 127.421 79.7214C120.831 68.7681 120.298 70.2573 116.524 59.0662L126.686 52.6599L132.97 61.0892L146.71 45.2598C150.862 40.4758 158.178 40.153 162.736 44.5528V44.5528Z" fill="#00C7A9"/>
<path d="M144.879 31.0566L142.25 32.9401C142.25 32.9401 141.477 24.7313 140.409 24.3671C139.342 24.0028 137.902 25.8947 137.902 25.8947L136.85 28.9764L133.372 27.5268C133.372 27.5268 129.346 25.3581 127.922 24.8724C126.499 24.3867 126.715 20.2628 126.715 20.2628C126.715 20.2628 109.63 22.6019 112.197 12.7526C112.197 12.7526 113.081 5.50676 114.973 6.9469C116.865 8.38705 116.89 4.82061 116.89 4.82061L121.177 3.90009C121.177 3.90009 127.059 -4.0234 138.661 2.71708C150.264 9.45755 144.879 31.0566 144.879 31.0566V31.0566Z" fill="#2F2E41"/>
</g>
<defs>
<clipPath id="clip0_21_34">
<rect width="280" height="236.919" fill="white"/>
</clipPath>
</defs>
</svg>
